<svg xmlns="http://www.w3.org/2000/svg" xmlns:xlink="http://www.w3.org/1999/xlink" width="120" height="120" viewBox="0 0 120 120" fill="none"><g opacity="1"  transform="translate(0 0)  rotate(0)"><rect fill="#0170FE" opacity="1" transform="translate(0 0)  rotate(0)" x="0" y="0" width="120" height="120" rx="16" ry="16"/><mask id="bg-mask-0" fill="white"><use transform="translate(0 0)  rotate(0)" xlink:href="#path_0"></use></mask><g mask="url(#bg-mask-0)" ><path id="圆形 1" fill-rule="evenodd" style="fill:#FFFFFF" opacity="0.16" d="M18 60C-5.2 60 -24 78.8 -24 102C-24 125.2 -5.2 144 18 144C41.2 144 60 125.2 60 102C60 78.8 41.2 60 18 60Z"></path><g opacity="1"  transform="translate(28 28)  rotate(0)"><mask id="bg-mask-1" fill="white"><use transform="translate(0 0)  rotate(0)" xlink:href="#path_1"></use></mask><g mask="url(#bg-mask-1)" ><path id="路径 1" fill-rule="evenodd" style="fill:#80B8FF" opacity="1" d="M46.52,17.838c-1.35,1.36 -3.55,1.36 -4.91,0l-8.94,-8.93002c-0.34,-0.34 -0.86,-0.37 -1.23,-0.08c-0.03,0.03 -0.06,0.05 -0.09,0.08l-22.46,22.44002c-0.37,0.37 -0.37,0.95 0,1.32l22.47,22.45c0.37,0.37 0.95,0.37 1.32,0l8.93,-8.95c1.35,-1.35 3.55,-1.35 4.9,0c1.36,1.35 1.36,3.55 0,4.9l-11.79,11.79c-1.51,1.51 -3.95,1.51 -5.46,0l-28.12,-28.1c-0.73,-0.72 -1.14,-1.7 -1.14,-2.73c0,-1.02 0.41,-2.01 1.14,-2.73l28.12,-28.11002c1.5,-1.5 3.95,-1.51 5.47,-0.03c3.21,3.21 5.48,5.48 6.81,6.8l-0.01,-0.01l4.99,4.99002c1.36,1.35 1.36,3.55 0,4.9zM24.54,32.168c0,-4.18 3.41,-7.58 7.6,-7.58c4.19,0 7.59,3.4 7.59,7.58c0,4.19 -3.4,7.59 -7.59,7.59c-4.19,0 -7.6,-3.4 -7.6,-7.59zM62.84,29.418c0.73,0.72 1.14,1.7 1.14,2.72c0,1.03 -0.41,2.01 -1.13,2.73l-8.7,8.7c-1.36,1.35 -3.55,1.35 -4.91,0c-0.65,-0.65 -1.02,-1.53 -1.02,-2.45c0,-0.92 0.37,-1.8 1.02,-2.45l5.85,-5.84c0.37,-0.37 0.37,-0.95 0,-1.32l-5.93,-5.92c-0.65,-0.65 -1.02,-1.53 -1.02,-2.45c0,-0.92 0.37,-1.8 1.02,-2.45c1.35,-1.36 3.55,-1.36 4.9,-0.01z"></path><path id="路径 1" fill-rule="evenodd" style="fill:#FFFFFF" opacity="1" d="M46.52,17.838c-1.35,1.36 -3.55,1.36 -4.91,0l-8.94,-8.93002c-0.34,-0.34 -0.86,-0.37 -1.23,-0.08c-0.03,0.03 -0.06,0.05 -0.09,0.08l-22.46,22.44002c-0.37,0.37 -0.37,0.95 0,1.32l22.47,22.45c0.37,0.37 0.95,0.37 1.32,0l8.93,-8.95c1.35,-1.35 3.55,-1.35 4.9,0c1.36,1.35 1.36,3.55 0,4.9l-11.79,11.79c-1.51,1.51 -3.95,1.51 -5.46,0l-28.12,-28.1c-0.73,-0.72 -1.14,-1.7 -1.14,-2.73c0,-1.02 0.41,-2.01 1.14,-2.73l28.12,-28.11002c1.5,-1.5 3.95,-1.51 5.47,-0.03c3.21,3.21 5.48,5.48 6.81,6.8l-0.01,-0.01l4.99,4.99002c1.36,1.35 1.36,3.55 0,4.9zM24.54,32.168c0,-4.18 3.41,-7.58 7.6,-7.58c4.19,0 7.59,3.4 7.59,7.58c0,4.19 -3.4,7.59 -7.59,7.59c-4.19,0 -7.6,-3.4 -7.6,-7.59z"></path></g></g></g></g><defs><rect id="path_0" x="0" y="0" width="120" height="120" /><rect id="path_1" x="0" y="0" width="64" height="64" /></defs></svg>