<svg xmlns="http://www.w3.org/2000/svg" xmlns:xlink="http://www.w3.org/1999/xlink" width="120" height="120" viewBox="0 0 120 120" fill="none"><g opacity="1"  transform="translate(0 0)  rotate(0)"><rect fill="#4FC08D" opacity="1" transform="translate(0 0)  rotate(0)" x="0" y="0" width="120" height="120" rx="16" ry="16"/><mask id="bg-mask-0" fill="white"><use transform="translate(0 0)  rotate(0)" xlink:href="#path_0"></use></mask><g mask="url(#bg-mask-0)" ><path id="圆形 1" fill-rule="evenodd" style="fill:#FFFFFF" opacity="0.16" d="M18 60C-5.2 60 -24 78.8 -24 102C-24 125.2 -5.2 144 18 144C41.2 144 60 125.2 60 102C60 78.8 41.2 60 18 60Z"></path><g opacity="1"  transform="translate(20 20)  rotate(0)"><mask id="bg-mask-1" fill="white"><use transform="translate(0 0)  rotate(0)" xlink:href="#path_1"></use></mask><g mask="url(#bg-mask-1)" ><path id="路径 1" fill-rule="evenodd" style="fill:#FFFFFF" opacity="1" d="M58.5396 38.3504C56.8896 38.3504 56.0696 39.1804 55.2396 40.4104C54.4196 41.6504 54.4196 42.8804 54.4196 44.5304C54.4196 46.1804 54.8296 47.0004 56.0696 48.2404C56.8896 49.0604 58.1296 49.8904 59.7796 49.8904C61.4196 49.8904 62.6596 49.4804 63.4796 48.2404C64.3096 47.4204 64.7196 45.7704 64.7196 43.7104C64.7196 41.2404 64.3096 40.0004 62.6596 39.1804C61.4196 38.3504 60.1896 37.9404 58.5396 38.3504Z"></path><path id="路径 2" fill-rule="evenodd" style="fill:#FFFFFF" opacity="1" d="M7.04102,68.961v-57.92c0,-2.20998 1.79,-3.99998 3.99998,-3.99998h57.92c2.21,0 4,1.79 4,3.99998v57.92c0,2.21 -1.79,4 -4,4h-57.92c-2.20998,0 -3.99998,-1.79 -3.99998,-4zM28.461,49.061h-11.94v-9.06h10.3v-2.88h-10.3v-7.83h11.12v-2.89h-14.83v25.96h15.65zM47.411,44.941c0,-1.23 -0.41,-2.88 -1.64,-4.12c-1.24,-1.23 -2.89,-2.47 -4.95,-3.29c-2.06,-1.24 -3.7,-1.65 -4.12,-2.47c-0.82,-0.42 -0.82,-1.24 -0.82,-2.06c0,-1.24 0,-2.06 0.82,-2.89c0.83,-0.41 1.65,-0.82 2.89,-0.82c1.23,0 2.47,0.41 3.29,1.23c0.83,0.83 0.83,1.65 0.83,2.89h3.29c0,-1.65 -0.82,-3.3 -1.65,-4.53c-1.23,-1.65 -3.29,-2.48 -5.76,-2.48c-2.06,0 -3.71,0.42 -5.36,2.06c-1.23,1.24 -2.06,2.89 -2.06,4.95c0,1.23 0.41,2.88 1.65,4.12c1.24,0.82 2.88,2.06 5.36,2.88c1.64,0.41 2.88,1.24 3.7,2.06c0.83,0.82 1.24,2.06 1.24,2.88c0,1.24 -0.41,2.06 -0.83,2.89c-0.82,0.82 -2.06,1.23 -3.7,1.23c-1.24,0 -2.47,-0.41 -3.3,-1.23c-0.82,-0.83 -1.23,-1.65 -1.23,-3.3v-0.82h-3.3v1.23c0,2.06 0.41,3.71 2.06,4.95c1.24,1.23 3.3,2.06 5.77,2.06c2.47,0 4.53,-0.41 5.76,-1.65c1.65,-1.65 2.48,-3.3 2.06,-5.77zM68.011,43.291c0,-1.23 -0.41,-2.47 -0.82,-3.7c-0.82,-0.83 -1.65,-2.06 -3.3,-2.89c-1.64,-0.82 -3.7,-1.23 -6.59,-0.41l6.18,-9.89h-3.29l-6.18,9.48c-0.83,1.65 -1.65,2.88 -2.48,3.71c-0.41,1.23 -0.82,2.06 -0.82,3.7c0,1.65 0.41,2.89 0.82,4.54c0.42,1.64 1.24,2.88 2.89,3.7c1.65,0.83 3.29,1.24 5.35,1.24c2.06,0 3.71,-0.41 4.95,-1.65c1.23,-1.23 2.06,-2.47 2.47,-3.71c0.82,-1.23 0.82,-2.88 0.82,-4.12z"></path></g></g></g></g><defs><rect id="path_0" x="0" y="0" width="120" height="120" /><rect id="path_1" x="0" y="0" width="80" height="80" /></defs></svg>