<svg xmlns="http://www.w3.org/2000/svg" xmlns:xlink="http://www.w3.org/1999/xlink" width="120" height="120" viewBox="0 0 120 120" fill="none"><g opacity="1"  transform="translate(0 0)  rotate(0)"><rect fill="#DE4C35" opacity="1" transform="translate(0 0)  rotate(0)" x="0" y="0" width="120" height="120" rx="16" ry="16"/><mask id="bg-mask-0" fill="white"><use transform="translate(0 0)  rotate(0)" xlink:href="#path_0"></use></mask><g mask="url(#bg-mask-0)" ><path id="圆形 1" fill-rule="evenodd" style="fill:#FFFFFF" opacity="0.16" d="M18 60C-5.2 60 -24 78.8 -24 102C-24 125.2 -5.2 144 18 144C41.2 144 60 125.2 60 102C60 78.8 41.2 60 18 60Z"></path><g opacity="1"  transform="translate(20 20)  rotate(0)"><mask id="bg-mask-1" fill="white"><use transform="translate(0 0)  rotate(0)" xlink:href="#path_1"></use></mask><g mask="url(#bg-mask-1)" ><path id="路径 1" fill-rule="evenodd" fill="url(#linear_0)" opacity="1" d="M43.52 1.51C41.51 -0.5 38.25 -0.5 36.24 1.51L28.13 9.62L34.23 15.72C35.21 15.25 36.31 14.99 37.47 14.99C41.6 14.99 44.96 18.34 44.96 22.48C44.96 23.64 44.7 24.73 44.23 25.71L54.22 35.7C55.19 35.23 56.29 34.97 57.45 34.97C61.59 34.97 64.94 38.32 64.94 42.46C64.94 46.6 61.59 49.95 57.45 49.95C53.31 49.95 49.95 46.6 49.95 42.46C49.95 41.3 50.22 40.21 50.68 39.23L40.7 29.24C40.46 29.36 40.21 29.46 39.96 29.54L39.96 50.38C42.87 51.41 44.96 54.18 44.96 57.45C44.96 61.58 41.6 64.94 37.47 64.94C33.33 64.94 29.97 61.58 29.97 57.45C29.97 54.18 32.06 51.41 34.97 50.38L34.97 29.54C32.06 28.52 29.97 25.74 29.97 22.48C29.97 21.32 30.23 20.23 30.7 19.25L24.6 13.15L1.51 36.24C-0.499996 38.25 -0.499996 41.51 1.51 43.52L36.4 78.41C38.41 80.42 41.67 80.42 43.68 78.41L78.42 43.68C80.43 41.67 80.43 38.41 78.42 36.4L43.52 1.51Z"></path></g></g></g></g><defs><rect id="path_0" x="0" y="0" width="120" height="120" /><rect id="path_1" x="0" y="0" width="80" height="80" /><linearGradient id="linear_0" x1="28.305999999999997%" y1="50%" x2="87.06%" y2="50%" gradientUnits="objectBoundingBox"><stop offset="0" stop-color="#FFFFFF" stop-opacity="1" /><stop offset="1" stop-color="#EFA69A" stop-opacity="1" /></linearGradient></defs></svg>