<svg xmlns="http://www.w3.org/2000/svg" xmlns:xlink="http://www.w3.org/1999/xlink" width="120" height="120" viewBox="0 0 120 120" fill="none"><g opacity="1"  transform="translate(0 0)  rotate(0)"><rect fill="#FC6D24" opacity="1" transform="translate(0 0)  rotate(0)" x="0" y="0" width="120" height="120" rx="16" ry="16"/><mask id="bg-mask-0" fill="white"><use transform="translate(0 0)  rotate(0)" xlink:href="#path_0"></use></mask><g mask="url(#bg-mask-0)" ><path id="圆形 1" fill-rule="evenodd" style="fill:#FFFFFF" opacity="0.16" d="M18 60C-5.2 60 -24 78.8 -24 102C-24 125.2 -5.2 144 18 144C41.2 144 60 125.2 60 102C60 78.8 41.2 60 18 60Z"></path><g opacity="1"  transform="translate(15 17)  rotate(0)"><mask id="bg-mask-1" fill="white"><use transform="translate(0 0)  rotate(0)" xlink:href="#path_1"></use></mask><g mask="url(#bg-mask-1)" ><path id="路径 1" fill-rule="evenodd" style="fill:#FFFFFF" opacity="1" d="M80.321,48.5366c0.39,1.29 -0.1,2.76 -1.19,3.56l-32.38,24.21c-0.26,0.37 -0.62,0.63 -1.05,0.78l-0.74,0.56l-0.76,-0.56c-0.37,-0.13 -0.69,-0.37 -0.91,-0.68l-32.39,-24.3c-1.07998,-0.81 -1.57998,-2.28 -1.18998,-3.57l9.55998,-32.59c0.52,-1.92 2.23,-3.22 4.26,-3.22c2.05,0 3.73,1.19 4.37,3.09l6.27,18.72h21.69l6.28,-18.72c0.63,-1.9 2.31,-3.09 4.37,-3.09c1.98,0 3.57,1.2 4.24,3.21v0.01zM60.161,34.6566h11.73l-5.22,-17.56c-0.08,-0.24 -0.2,-0.27 -0.3,-0.27c-0.05,0 -0.22,0.01 -0.3,0.17zM18.151,34.6666h11.59l-5.91,-17.69c-0.05,-0.14 -0.07,-0.15 -0.3,-0.15c-0.1,0 -0.22,0.03 -0.3,0.26zM34.221,64.2966l-17.79,-23.74l-2.47,8.55zM39.161,63.8566l-7.98,-24.98h-10.73zM54.491,38.8766h-18.83l9.42,29.33zM50.981,63.5566l18.48,-24.68h-10.5zM76.191,49.1066l-2.59,-8.72l-18.22,24.32z"></path><path id="减去顶层" fill-rule="evenodd" fill="url(#linear_0)" opacity="1" d="M70.7514,15.9366l5.46,18.6h-4.36l-5.17,-17.45c-0.09,-0.23 -0.21,-0.26 -0.31,-0.26c-0.05,0 -0.22,0.01 -0.3,0.17l-5.87,17.54h-4.33l6.27,-18.71c0.63,-1.92 2.31,-3.1 4.37,-3.1c1.98,0 3.57,1.19 4.24,3.21zM13.8214,34.5366l5.45,-18.6c0.52,-1.91 2.23,-3.21 4.26,-3.21c2.05,0 3.74,1.18 4.36,3.1l6.28,18.71h-4.47l-5.88,-17.56c-0.04,-0.14 -0.06,-0.15 -0.29,-0.15c-0.09,0 -0.22,0.03 -0.3,0.26l-5.04,17.45z"></path></g></g></g></g><defs><rect id="path_0" x="0" y="0" width="120" height="120" /><rect id="path_1" x="0" y="0" width="90" height="90" /><linearGradient id="linear_0" x1="50%" y1="60.998%" x2="51%" y2="95.868%" gradientUnits="objectBoundingBox"><stop offset="0" stop-color="#FEB692" stop-opacity="1" /><stop offset="1" stop-color="#FEB692" stop-opacity="0" /></linearGradient></defs></svg>