<svg xmlns="http://www.w3.org/2000/svg" xmlns:xlink="http://www.w3.org/1999/xlink" width="120" height="120" viewBox="0 0 120 120" fill="none"><g opacity="1"  transform="translate(0 0)  rotate(0)"><rect fill="#E24F24" opacity="1" transform="translate(0 0)  rotate(0)" x="0" y="0" width="120" height="120" rx="16" ry="16"/><mask id="bg-mask-0" fill="white"><use transform="translate(0 0)  rotate(0)" xlink:href="#path_0"></use></mask><g mask="url(#bg-mask-0)" ><path id="圆形 1" fill-rule="evenodd" style="fill:#FFFFFF" opacity="0.16" d="M18 60C-5.2 60 -24 78.8 -24 102C-24 125.2 -5.2 144 18 144C41.2 144 60 125.2 60 102C60 78.8 41.2 60 18 60Z"></path><g opacity="1"  transform="translate(20 22)  rotate(0)"><mask id="bg-mask-1" fill="white"><use transform="translate(0 0)  rotate(0)" xlink:href="#path_1"></use></mask><g mask="url(#bg-mask-1)" ><path id="路径 1" fill-rule="evenodd" style="fill:#FFFFFF" opacity="1" d="M5,2.5h69.44l-5.68,65.92l-29.44,9.04l-28,-9.04zM62.28,12.42l-44.72,-0.08l2.88,30h29.12v7.84l-9.76,3.44l-10.16,-3.6l-0.64,-4.24l-8,0.08l1.2,10.56l17.12,6l18,-5.68l2.32,-24.16h-31.68l-0.8,-10.16h33.44z"></path><path id="交集" fill-rule="evenodd" style="fill:#F1A792" opacity="1" d="M39.9361,2.5h34.5039l-5.68,65.92l-29.2594,8.9846l0.0876,-15.0692l17.7318,-5.5954l2.32,-24.16h-19.8788l0.0591,-10.16h20.7797l1.68,-10l-22.4013,-0.0401zM39.7045,42.34h9.8556v7.84l-9.7601,3.44l-0.1608,-0.057z"></path></g></g></g></g><defs><rect id="path_0" x="0" y="0" width="120" height="120" /><rect id="path_1" x="0" y="0" width="80" height="80" /></defs></svg>