<svg xmlns="http://www.w3.org/2000/svg" xmlns:xlink="http://www.w3.org/1999/xlink" width="120" height="120" viewBox="0 0 120 120" fill="none"><g opacity="1"  transform="translate(0 0)  rotate(0)"><rect fill="#E65E21" opacity="1" transform="translate(0 0)  rotate(0)" x="0" y="0" width="120" height="120" rx="16" ry="16"/><mask id="bg-mask-0" fill="white"><use transform="translate(0 0)  rotate(0)" xlink:href="#path_0"></use></mask><g mask="url(#bg-mask-0)" ><path id="圆形 1" fill-rule="evenodd" style="fill:#FFFFFF" opacity="0.16" d="M18 60C-5.2 60 -24 78.8 -24 102C-24 125.2 -5.2 144 18 144C41.2 144 60 125.2 60 102C60 78.8 41.2 60 18 60Z"></path><g opacity="1"  transform="translate(24 24)  rotate(0)"><mask id="bg-mask-1" fill="white"><use transform="translate(0 0)  rotate(0)" xlink:href="#path_1"></use></mask><g mask="url(#bg-mask-1)" ><path id="路径 1" fill-rule="evenodd" style="fill:#F3AF90" opacity="1" d="M8.6337,72.0037h-2.93c-0.07,-0.2 -0.14,-0.4 -0.21,-0.59c-0.64,-2 -1.78,-4.47 -2.07,-6.46c-0.44,-2.96 2.34,-3.12 4.12,-4.4c2.74,-1.98 4.9,-3.07 7.87,-4.86c0.89,-0.53 3.55,-1.87 3.85,-2.48c0.6,-1.23 -1.04,-2.95 -1.47,-3.9c-0.68,-1.52 -1.04,-2.81 -1.13,-4.3c-2.47,-0.4 -4.36,-1.88 -5.53,-3.56c-1.89,-2.77 -3.2,-7.9 -1.58,-11.8c0.14,-0.31 0.77,-0.92 0.86,-1.39c0.18,-0.93 -0.32,-2.16 -0.36,-3.15c-0.18,-5.07 0.85,-9.44 4.27,-10.97c1.39,-5.51996 6.34,-7.35996 11.02,-10.09996c1.74,-1.02 3.67,-1.68 5.67,-2.42c7.11,-2.63 18.07,-2.13 23.97,2.35c2.51,1.9 6.53,5.91 7.97,8.80996c3.78,7.67 3.51,20.47 0.86,29.8c-0.36,1.26 -0.87,3.09 -1.6,4.59c-0.5,1.05 -2.07,3.15 -1.87,4.08c0.19,0.94 3.56,3.51 4.29,4.19c1.3,1.26 3.78,2.92 3.97,4.49c0.21,1.68 -0.74,4.01 -1.23,5.63c-0.65,2.16 -1.31,4.32 -1.96,6.39h-56.79zM35.7337,59.1137c-2.6,-0.49 -2.33,3.56 -2.25,5.98c0.09,1.93 1.09,3.95 1.54,5.23c0.22,0.59 0.26,1.23 0.76,1.35c0.9,0.2 3.87,-0.98 4.72,-1.44c1.8,-0.98 3.19,-2.53 4.72,-3.57c0.05,-0.51 0.05,-1.02 0.1,-1.52c-1.03,-0.51 -2.15,-0.79 -3.29,-0.83c0.94,-0.45 2.25,-0.45 3.1,-1l0.05,-0.57c-1.49,-0.1 -2.06,-0.77 -3.06,-1.31l-0.19,-0.05c-1.64,-0.9 -4.09,-1.87 -6.2,-2.27zM65.6837,64.9337c0.17,-0.86 0.64,-2.76 0.53,-3.53c-0.18,-1.38 -2.05,-2.4 -3.01,-3.26c-1.75,-1.57 -2.85,-2.92 -4.68,-4.4c-0.75,1.12 -2.34,1.84 -2.95,2.74c4.34,-2.07 5.13,7.87 3.42,11.06c0.27,0.99 1.18,1.36 1.55,2.21l-0.26,0.5h3.86c0.05,0 0.1,0 0.14,0.04v-0.11c0.58,-1.85 1.08,-3.66 1.4,-5.25zM43.9337,69.5237l-0.9,0.58h1.35v0.05c-0.14,-0.23 -0.3,-0.41 -0.45,-0.63zM52.7837,68.3537c-1.59,0.09 -2.47,-1.44 -3.58,-1.58c-0.97,-0.13 -1.8,1.08 -3.06,0.59c-0.29,0.31 -0.55,0.68 -0.86,0.94c0.47,0.54 0.89,1.13 1.28,1.76h2.44c0.04,-0.5 0.41,-0.86 0.9,-0.86c0.5,0 0.85,0.36 0.85,0.81h1.98l-0.04,0.14c0.03,-0.63 0.06,-1.22 0.09,-1.8zM54.0037,68.4837l-0.09,1.62h5.13v0.05c-0.94,-1.44 -2.84,-2.7 -5.04,-1.67zM33.2037,69.1137c-0.67,-2.16 -1.07,-3.77 -1.21,-5.03c-2.74,-1.31 -5.62,-2.62 -7.96,-4.28c-0.45,-0.32 -3.33,-4.05 -3.69,-3.91c-5.21,2.02 -10.07,5.57 -14.43,8.94c0.76,1.68 1.43,3.43 2.06,5.22h25.51l0.04,0.1zM56.8737,58.5937c-1.98,-1.17 -5.54,2.34 -7.02,2.83c0.13,0.45 0.4,0.81 0.45,1.44c0.85,-0.22 1.93,-0.09 2.69,0.27c-0.9,0.09 -1.89,0.09 -2.47,0.5c-0.22,0.58 0.05,1.44 -0.09,2.29c2.07,0.59 4.5,0.91 7.16,0.99c0.49,-0.68 0.67,-1.93 0.63,-3.24l0.09,0.14c-0.09,-1.54 -0.5,-4.68 -1.44,-5.22zM46.4337,65.5637c3.78,1.17 3.1,-5.22 -0.41,-2.88l0.05,0.05c-0.14,1.12 0.13,1.53 0.36,2.83zM31.7237,61.8437c0,-0.87 0.5,-1.69 0.41,-2.31c-1.95,-0.35 -4.51,-0.12 -5.84,-1.03h-0.01c-1.35,1.37 3.81,3.25 5.44,3.34zM42.7737,59.3437c1.74,1.35 3.04,1.63 5.4,1.53c1.07,-0.79 2.01,-1.69 3.13,-2.42c-2.56,0.22 -5.79,1.82 -8.32,0.68l-0.01,0.02c0,0.12 -0.18,0.08 -0.2,0.19zM35.0137,3.79374c-4.14,2.08 -9.81,5.52 -11.7,9.86996c1.8,4.21 -0.49,8.06 -0.67,12.33c-0.06,2.27 1.08,4.26 1.17,6.72c-0.6,1.02 -2.48,1.14 -3.78,1.07c-0.44,-2.19 -1.2,-4.64 -3.46,-4.89c-3.19,-0.34 -5.54,2.29 -5.67,5.05c-0.18,3.24 2.5,8.59 6.25,8.23c1.46,-0.14 1.82,-1.62 3.42,-1.62c0.85,1.71 -1.34,2.25 -1.57,3.46c-0.05,0.32 0.18,1.54 0.31,2.12c0.7,2.83 2.23,6.47 3.73,8.63c1.91,2.7 5.65,3.16 9.69,3.43c0.72,-1.58 3.37,-1.44 5.11,-1.04c-2.07,-0.81 -4,-2.84 -5.62,-4.59c-1.84,-2.02 -3.69,-4.23 -3.78,-6.83c3.46,4.81 6.3,8.99 12.6,11.1c4.77,1.58 10.34,-0.76 13.98,-3.32c1.53,-1.08 2.44,-2.79 3.51,-4.32c4.05,-5.8 5.94,-14.12 5.54,-22.17c-0.18,-3.34 -0.18,-6.66 -1.31,-8.87c-1.17,-2.34 -5.08,-4.41 -7.42,-2.34c-0.45,-2.29 1.89,-3.68 4.63,-2.87c-1.98,-2.57 -4,-5.57996 -6.79,-7.15996l0.05,0.2c-4.82,-2.71 -13.05,-4.77 -18.22,-2.19zM40.7437,44.6937c1.84,4.63 8.17,4.09 13.51,3.97c-0.25,0.58 -0.76,1.31 -1.39,1.55c-1.71,0.69 -6.44,1.22 -8.81,-0.04c-1.52,-0.81 -2.47,-2.62 -3.31,-3.68c-0.41,-0.52 -2.38,-1.82 -0.03,-1.83zM41.2337,42.0837c2.68,1.4 7.56,1.56 11.19,1.44c0.2,0.81 0.2,1.78 0.21,2.74c-4.65,0.24 -10.16,-0.91 -11.38,-4.18h-0.02zM61.2537,40.3337c-1.42,2.7 -3.43,5.69 -7.61,5.78c-0.07,-0.85 -0.14,-2.2 0,-2.71c3.19,-0.31 5.18,-1.94 7.63,-3.05zM59.3137,38.3337c-3.06,1.98 -6.46,4.12 -11.47,3.63c-1.06,-0.93 -1.46,-3.01 -0.42,-4.38c0.54,0.94 0.18,2.66 1.71,2.91c2.83,0.5 6.11,-1.73 8.18,-2.52c1.26,-2.13 -0.13,-2.92 -1.26,-4.29c-2.34,-2.8 -5.48,-6.3 -5.4,-10.53c0.94,-0.67 1.04,1.03 1.17,1.35c1.22,2.88 4.27,6.52 6.52,8.99c0.54,0.64 1.44,1.18 1.53,1.58c0.28,1.16 -0.76,2.56 -0.62,3.32zM19.0037,36.3037c-0.94,-0.55 -1.18,-2.97 -2.3,-3.03c-1.61,-0.09 -1.32,3.15 -1.31,5.04c-1.11,-0.99 -1.3,-4.09 -0.49,-5.67c-0.92,-0.45 -1.34,0.5 -1.85,0.86c0.66,-4.77 7.01,-2.2 5.96,2.88zM12.7737,27.5637c3.73,-2.36 8.69,0.18 8.65,4.18c1.78,-0.05 0.66,-2.23 0.34,-3.64c-1.06,-4.59 1.78,-9.56 0.12,-13.77c-3.19,0.25 -5.81,1.56 -7.73,3.64v0.03c-2.06,2.27 -1.62,6.52 -1.38,9.56zM41.5037,21.3437c0.92,1.68 1.21,3.44 2.52,4.7c0.58,0.58 1.72,1.28 1.16,2.86c-0.14,0.36 -1.1,1.17 -1.66,1.35c-2.02,0.58 -6.76,0.09 -5.16,-2.43c1.69,0.04 3.94,1.07 5.2,-0.14c-0.95,-1.57 -2.66,-4.59 -2.02,-6.39zM60.0937,21.3037h0.2c0.99,2 1.8,4.12 3.01,5.89c-0.81,1.89 -6.16,3.57 -6.07,0.17c1.17,-0.51 3.15,-0.1 4.19,-0.75c-0.58,-1.67 -1.44,-3.02 -1.3,-5.31zM39.3137,16.4537c-4.26,-0.99 -6.39,1.77 -7.68,4.65c-1.15,-0.28 -0.69,-1.84 -0.4,-2.64c0.76,-2.11 3.84,-4.9 6.35,-4.52c1.08,0.17 2.55,1.16 1.73,2.5zM16.3337,13.7237c1.49,-0.21 2.52,-0.97 3.99,-1.06c0.56,-0.05 1.28,0.22 1.92,0.05c1.27,-0.31 2.34,-3.19996 3.31,-4.22996c0.93,-1.04 2.05,-1.49 2.82,-2.43c0.5,-0.27 1.22,-0.22 1.26,-0.99c-0.22,-0.22 -0.45,-0.4 -0.7,-0.31v0.05v0c-4.68,1.32 -10.68,4.72 -12.6,8.91996z"></path><path id="路径 1" fill-rule="evenodd" style="fill:#FFFFFF" opacity="1" d="M40.7393,44.699c1.85,4.63 8.18,4.09 13.52,3.97c-0.25,0.58 -0.77,1.3 -1.4,1.54c-1.71,0.7 -6.43,1.22 -8.81,-0.04c-1.51,-0.81 -2.47,-2.61 -3.3,-3.67c-0.41,-0.52 -2.39,-1.83 -0.04,-1.83zM41.2393,42.089c2.67,1.39 7.55,1.55 11.19,1.44c0.2,0.8 0.2,1.78 0.2,2.74c-4.65,0.24 -10.15,-0.91 -11.38,-4.19h-0.01zM61.2593,40.329c-1.42,2.7 -3.44,5.69 -7.62,5.78c-0.07,-0.85 -0.13,-2.2 0,-2.71c3.19,-0.31 5.18,-1.93 7.63,-3.05zM59.3093,38.329c-3.06,1.98 -6.46,4.13 -11.47,3.63c-1.05,-0.93 -1.45,-3 -0.42,-4.37c0.55,0.94 0.18,2.65 1.71,2.9c2.83,0.5 6.11,-1.73 8.19,-2.51c1.26,-2.14 -0.14,-2.93 -1.26,-4.3c-2.34,-2.79 -5.49,-6.3 -5.4,-10.53c0.94,-0.67 1.03,1.04 1.17,1.35c1.21,2.88 4.27,6.53 6.52,9c0.54,0.63 1.44,1.17 1.53,1.57c0.27,1.17 -0.76,2.56 -0.63,3.33zM19.0093,36.309c-0.95,-0.55 -1.18,-2.97 -2.31,-3.03c-1.6,-0.09 -1.31,3.14 -1.3,5.03c-1.11,-0.98 -1.31,-4.09 -0.5,-5.66c-0.92,-0.45 -1.33,0.49 -1.85,0.85c0.66,-4.77 7.02,-2.2 5.96,2.88zM41.4993,21.339c0.92,1.69 1.21,3.44 2.52,4.71c0.58,0.57 1.72,1.27 1.16,2.85c-0.13,0.36 -1.09,1.17 -1.65,1.35c-2.02,0.58 -6.76,0.09 -5.16,-2.43c1.69,0.05 3.94,1.08 5.19,-0.13c-0.94,-1.58 -2.65,-4.59 -2.02,-6.39zM60.0893,21.299h0.2c0.99,2 1.8,4.12 3.02,5.89c-0.81,1.89 -6.16,3.57 -6.07,0.18c1.17,-0.51 3.14,-0.11 4.18,-0.75c-0.58,-1.67 -1.44,-3.02 -1.3,-5.32zM39.3093,16.449c-4.26,-0.99 -6.39,1.78 -7.67,4.66c-1.15,-0.28 -0.7,-1.84 -0.41,-2.65c0.77,-2.1 3.84,-4.9 6.36,-4.51c1.07,0.17 2.54,1.15 1.72,2.5z"></path></g></g></g></g><defs><rect id="path_0" x="0" y="0" width="120" height="120" /><rect id="path_1" x="0" y="0" width="72" height="72" /></defs></svg>