<svg xmlns="http://www.w3.org/2000/svg" xmlns:xlink="http://www.w3.org/1999/xlink" width="120" height="120" viewBox="0 0 120 120" fill="none"><g opacity="1"  transform="translate(0 0)  rotate(0)"><rect fill="#DEC940" opacity="1" transform="translate(0 0)  rotate(0)" x="0" y="0" width="120" height="120" rx="16" ry="16"/><mask id="bg-mask-0" fill="white"><use transform="translate(0 0)  rotate(0)" xlink:href="#path_0"></use></mask><g mask="url(#bg-mask-0)" ><path id="圆形 1" fill-rule="evenodd" style="fill:#FFFFFF" opacity="0.16" d="M18 60C-5.2 60 -24 78.8 -24 102C-24 125.2 -5.2 144 18 144C41.2 144 60 125.2 60 102C60 78.8 41.2 60 18 60Z"></path><g opacity="1"  transform="translate(20 20)  rotate(0)"><mask id="bg-mask-1" fill="white"><use transform="translate(0 0)  rotate(0)" xlink:href="#path_1"></use></mask><g mask="url(#bg-mask-1)" ><path id="路径 1" fill-rule="evenodd" style="fill:#F7EB9C" opacity="1" d="M50.28 51.7C47.92 51.7 46.2 51.26 45.08 50.46C43.84 49.54 43.08 47.98 42.76 45.82L38.12 45.82C38.32 49.46 39.64 52.1 42.04 53.78C44 55.14 46.76 55.82 50.28 55.82C53.92 55.82 56.76 55.06 58.76 53.62C60.76 52.14 61.76 50.1 61.76 47.54C61.76 44.9 60.52 42.86 58.04 41.38C56.92 40.74 54.44 39.78 50.56 38.58C47.92 37.74 46.28 37.14 45.68 36.82C44.32 36.1 43.68 35.1 43.68 33.9C43.68 32.54 44.24 31.54 45.44 30.94C46.4 30.42 47.76 30.18 49.56 30.18C51.64 30.18 53.24 30.54 54.28 31.34C55.32 32.1 56.08 33.38 56.48 35.14L61.12 35.14C60.84 32.02 59.68 29.7 57.68 28.22C55.8 26.82 53.16 26.14 49.8 26.14C46.72 26.14 44.2 26.82 42.2 28.22C40.04 29.66 39 31.66 39 34.18C39 36.7 40.08 38.62 42.28 39.94C43.12 40.42 45.32 41.22 48.84 42.34C52 43.3 53.84 43.94 54.4 44.22C56.16 45.1 57.08 46.3 57.08 47.82C57.08 49.02 56.44 49.94 55.24 50.66C54.04 51.34 52.36 51.7 50.28 51.7Z"></path><path id="路径 2" fill-rule="evenodd" style="fill:#FFFFFF" opacity="1" d="M43.59 2.70264C41.15 1.29264 38.14 1.29264 35.7 2.70264L10.18 17.4926C7.75 18.9026 6.26 21.4926 6.25 24.3026L6.25 55.6526C6.25 58.4926 7.79 61.1226 10.27 62.5226L19.47 67.6926C19.57 67.7426 19.68 67.7526 19.79 67.7926C21.01 68.3826 22.46 68.6926 24.28 68.6926C27.6 68.6926 30.16 67.4826 31.68 65.8026C33.04 64.2026 33.72 61.8026 33.72 58.5226L33.72 26.7026L29.04 26.7026L29.04 58.3626C29.04 60.4026 28.68 61.8826 27.96 62.8026C27.24 63.7226 26.08 64.2026 24.52 64.2026C24.31 64.2026 23.07 63.8826 22.09 63.4626L22.07 63.4626C22.02 63.4226 21.98 63.3626 21.92 63.3326L12.72 58.1626C11.81 57.6526 11.25 56.6926 11.25 55.6526L11.25 24.3026C11.25 23.2826 11.8 22.3226 12.68 21.8126L38.2 7.02264C39.09 6.51264 40.19 6.51264 41.09 7.02264L66.62 21.8126C67.51 22.3326 68.06 23.2826 68.06 24.3026L68.06 55.7526C68.06 56.7526 67.52 57.7026 66.66 58.2126L41.99 72.9526C41.11 73.4826 40.01 73.5026 39.11 72.9926L33.86 70.0426C32.66 69.3726 31.13 69.7926 30.45 71.0026C29.78 72.2026 30.2 73.7326 31.41 74.4026L36.66 77.3526C39.12 78.7326 42.13 78.6926 44.55 77.2426L69.22 62.5026C71.59 61.0826 73.05 58.5226 73.06 55.7526L73.06 24.3026C73.05 21.4926 71.56 18.9026 69.13 17.4826L43.59 2.70264Z"></path></g></g></g></g><defs><rect id="path_0" x="0" y="0" width="120" height="120" /><rect id="path_1" x="0" y="0" width="80" height="80" /></defs></svg>