<svg xmlns="http://www.w3.org/2000/svg" xmlns:xlink="http://www.w3.org/1999/xlink" width="120" height="120" viewBox="0 0 120 120" fill="none"><g opacity="1"  transform="translate(0 0)  rotate(0)"><rect fill="#809CC9" opacity="1" transform="translate(0 0)  rotate(0)" x="0" y="0" width="120" height="120" rx="16" ry="16"/><mask id="bg-mask-0" fill="white"><use transform="translate(0 0)  rotate(0)" xlink:href="#path_0"></use></mask><g mask="url(#bg-mask-0)" ><path id="圆形 1" fill-rule="evenodd" style="fill:#FFFFFF" opacity="0.06" d="M18 60C-5.2 60 -24 78.8 -24 102C-24 125.2 -5.2 144 18 144C41.2 144 60 125.2 60 102C60 78.8 41.2 60 18 60Z"></path><g opacity="1"  transform="translate(16 16)  rotate(0)"><mask id="mask-1" fill="white"><path d="M0 0L0 88L88 88L88 0L0 0Z"  ></path></mask><g mask="url(#mask-1)"></g><g mask="url(#mask-1)"><g opacity="1"  transform="translate(-17.58624267578125 10.697998046875)  rotate(0)"><path id="path53" fill-rule="evenodd" fill="url(#linear_0)" opacity="1" d="M65.36 8.9C44.85 14.08 28.61 19.22 16.62 24.33C4.76 29.39 -0.75 33.57 0.08 36.88C0.7 39.33 4.27 40.59 10.8 40.65C14.2 40.67 19.36 40.39 26.27 39.81C33.17 39.24 41.85 38.39 52.29 37.27C59.03 36.56 64.66 36.04 69.2 35.7C73.72 35.37 77.27 35.19 79.84 35.16C84.87 35.19 87.58 35.98 87.97 37.51C88.42 39.29 85.71 41.47 79.84 44.05C73.96 46.63 65.59 49.3 54.73 52.04C43.1 54.97 30 57.48 15.44 59.57L16.78 64.87C29.09 63.03 43.75 59.96 60.75 55.67C80.94 50.57 97.42 45.32 110.18 39.91C122.92 34.45 128.88 30.1 128.06 26.85C127.45 24.45 124 23.17 117.72 23C111.42 22.77 99.87 23.53 83.08 25.28C73.96 26.25 66.51 26.99 60.74 27.5C54.96 28.01 50.8 28.29 48.24 28.34C43.24 28.48 40.57 27.81 40.2 26.34C39.78 24.67 42.76 22.5 49.16 19.82C55.54 17.09 63.96 14.4 74.44 11.75C84.16 9.3 95.24 7.17 107.7 5.37L106.35 0C93.21 2.35 79.55 5.32 65.36 8.9Z"></path></g></g></g></g></g><defs><rect id="path_0" x="0" y="0" width="120" height="120" /><linearGradient id="linear_0" x1="28.305999999999997%" y1="50%" x2="87.06%" y2="50%" gradientUnits="objectBoundingBox"><stop offset="0" stop-color="#FFFFFF" stop-opacity="1" /><stop offset="1" stop-color="#FFFFFF" stop-opacity="0.4" /></linearGradient></defs></svg>