<svg xmlns="http://www.w3.org/2000/svg" xmlns:xlink="http://www.w3.org/1999/xlink" width="120" height="120" viewBox="0 0 120 120" fill="none"><g opacity="1"  transform="translate(0 0)  rotate(0)"><rect fill="url(#linear_0)" opacity="1" transform="translate(0 0)  rotate(0)" x="0" y="0" width="120" height="120" rx="16" ry="16"/><mask id="bg-mask-0" fill="white"><use transform="translate(0 0)  rotate(0)" xlink:href="#path_0"></use></mask><g mask="url(#bg-mask-0)" ><g opacity="1"  transform="translate(-41 16)  rotate(0)"><mask id="bg-mask-1" fill="white"><use transform="translate(0 0)  rotate(0)" xlink:href="#path_1"></use></mask><g mask="url(#bg-mask-1)" ><g opacity="1"  transform="translate(-0.0001220703125 -0.00286865234375)  rotate(0)"><g id="undefined" filter="url(#filter_2)"></g><g opacity="1"  transform="translate(0 0)  rotate(0)"><path id="路径 1" fill-rule="evenodd" style="fill:#A6C3EB" opacity="1" d="M111.128,63.2562zM111.128,63.2562v17.28h-22.4699v-17.19l0.93,-1.25v-1.21h20.6399v1.56z"></path><path id="路径 2" fill-rule="evenodd" style="fill:#FFCBB5" opacity="1" d="M89.5884 80.5353L110.228 80.5353L110.228 51.4153L89.5884 51.4153L89.5884 80.5353Z"></path><path id="路径 3" fill-rule="evenodd" fill="url(#linear_1)" opacity="1" d="M110.228,56.8953zM110.228,56.8953l-13.2496,15.38l3.2296,4.07l10.02,-12.3v16.49h-19.7596l-0.88,-5.84v-23.28h20.6396z"></path><path id="路径 4" fill-rule="evenodd" style="fill:#BBE1FF" opacity="1" d="M74.671,79.3296zM74.671,79.3296l13.12,-7.54l11.97,10.44l13.45,-10.67l11.08,35.6304l3.43,106.81l-51.91,1.16z"></path><path id="路径 5" fill-rule="evenodd" style="fill:#99C7F9" opacity="1" d="M83.881,70.7611zM83.881,70.7611l4.28,3l3.27,110.0899l-5.39,3.36z"></path><path id="路径 6" fill-rule="evenodd" style="fill:#99C7F9" opacity="1" d="M116.549,70.7611zM112.279,73.7611l4.27,-3l-2.15,116.4499l-5.4,-3.36z"></path><path id="路径 7" fill-rule="evenodd" style="fill:#3F79CE" opacity="1" d="M103.262 88.9375L103.262 88.7375L103.262 88.6475L105.492 78.1475L93.5222 78.1475L95.1422 88.3075L95.2222 88.8275L95.2222 89.1875L90.8022 161.367C90.7522 161.987 90.9522 162.607 91.3522 163.087L99.2122 172.547C99.4922 172.907 99.9222 173.117 100.382 173.117C100.842 173.117 101.272 172.907 101.562 172.547L109.302 163.007C109.702 162.517 109.902 161.877 109.842 161.247L103.262 88.9375Z"></path><path id="路径 8" fill-rule="evenodd" style="fill:#519AD6" opacity="1" d="M103.842 88.6611L103.842 88.4511L103.842 88.3611L104.712 84.3611L105.342 81.4411L106.122 77.8411L94.1423 77.8411L95.2123 84.5411L95.7623 88.0011L95.8423 88.5211L95.8223 88.8811L91.4023 161.041C91.3523 161.661 91.5523 162.281 91.9523 162.761L99.8123 172.221C100.092 172.581 100.522 172.791 100.982 172.801C101.442 172.801 101.872 172.601 102.162 172.241L109.902 162.731C110.302 162.231 110.502 161.601 110.442 160.961L103.842 88.6611Z"></path><path id="路径 9" fill-rule="evenodd" style="fill:#3F79CE" opacity="1" d="M105.342,81.4411zM105.342,81.4411l-0.66,2.97l-4.7298,-5.7l-4.73,5.97l-1.08,-6.84h8.2198z"></path><path id="路径 10" fill-rule="evenodd" style="fill:#99C7F9" opacity="1" d="M110.248,63.3918zM115.418,69.4919l-4.29,10.4199l-0.64,1.5501l-2.18,5.75c-0.04,0.1099 -0.14,0.1899 -0.25,0.2099c-0.12,0.0301 -0.24,-0.01 -0.32,-0.1l-5.01,-5.9799l-2.72,-3.5101l-2.8603,3.56l-4.85,5.98c-0.07,0.0801 -0.18,0.1201 -0.29,0.1c-0.11,-0.0099 -0.21,-0.08 -0.26,-0.18l-2.9,-5.8299l-0.21,-0.3901l-5.18,-9.84l5.18,-6.9599l0.93,-1.25l-0.57,1.51c-0.2,0.5 -0.11,1.06 0.24,1.47l0.35,0.42l10.4203,11.4l10.23,-11.23l0.25,-0.3001c0.46,-0.5499 0.55,-1.3299 0.22,-1.9699l-0.46,-0.9301l0.89,0.8l2.36,2.3301z"></path><path id="路径 11" fill-rule="evenodd" style="fill:#FDFEFF" opacity="1" d="M110.248,62.4633zM115.418,68.5633l-4.29,10.42l-0.64,1.55l-2.28,5.54c-0.05,0.11 -0.14,0.19 -0.25,0.21c-0.12,0.03 -0.24,-0.01 -0.32,-0.09l-5.15,-5.66l-2.48,-2.71l-2.4703,2.71l-5.18,5.69c-0.08,0.08 -0.19,0.12 -0.3,0.1c-0.11,-0.02 -0.2,-0.08 -0.26,-0.18l-2.95,-5.61l-0.21,-0.39l-5.18,-9.84l5.18,-6.96l0.93,-1.25l-0.57,1.51c-0.2,0.5 -0.11,1.06 0.24,1.47l0.35,0.42l10.4203,12.31l10.23,-12.14l0.25,-0.3c0.46,-0.55 0.55,-1.33 0.22,-1.97l-0.46,-0.93l0.89,0.8l2.36,2.33z"></path><path id="路径 12" fill-rule="evenodd" style="fill:#667485" opacity="1" d="M61.2486,167.398zM86.1586,68.5381zM61.3386,166.558zM74.9386,218.928c-2.04,-0.07 -3.87,-0.21 -5.53,-0.39c-3.61,-0.41 -7.18,-1.04 -10.7,-1.9c-1.48,-0.35 -2.47,-1.74 -2.3,-3.25l4.84,-45.99l0.09,-0.84l1.63,-15.53c0,0 -0.41,1.29 -1.35,3.43c-0.22,0.5 -0.46,1.05 -0.75,1.65c-0.58,1.23 -1.29,2.64 -2.14,4.18c-0.47,0.83 -0.93,1.69 -1.48,2.57c-1.4,2.33 -2.91,4.58 -4.54,6.75c-0.58,0.74 -1.35,1.31 -2.23,1.65c-2.12,0.88 -5.16,0.93 -8.7,0.41c-2.17,-0.34 -4.32,-0.81 -6.43,-1.39c-1.4,-0.37 -2.79,-0.78 -4.19,-1.24c-12.56,-3.98 -26.39998,-10.81 -30.35998,-12.82c-0.64,-0.33 -0.93,-1.08 -0.7,-1.76l3,-8.75l4.72,-13.76c0.22,-0.71 0.96,-1.12 1.68,-0.93l16.71998,4.41l1.44,0.39l0.22,0.06l1.39,0.37l1.75,0.46l5.24,1.39l0.17,0.05c0.18,0.05 0.37,-0.06 0.43,-0.24l14.47,-44.6999c0.89,-2.78 2.69,-5.17 5.11,-6.8c0,0 15.43,-8.72 23.94,-14.76l0.97,-0.69c1.4,-0.97 2.7,-2.07 3.89,-3.28c0.23,-0.25 0.42,-0.53 0.55,-0.84c0.13,0.09 0.25,0.67 0.37,1.7c0.26,2.08 0.53,5.96 0.81,11.14c0.47,8.71 0.99,21.1099 1.48,34.9199v0.11c0.21,6.37 0.46,13.05 0.66,19.79c1.27,39.45 2.3,81.41 2.3,81.41c0.06,1.35 -0.97,2.5 -2.33,2.58c-3.21,0.17 -7,0.71 -14.14,0.44z"></path><path id="路径 13" fill-rule="evenodd" style="fill:#324763" opacity="1" d="M76.4645 89.9383C76.4145 90.3983 76.5945 90.8483 76.9545 91.1383L82.1645 95.3883C82.7045 95.8283 82.8745 96.5683 82.5845 97.2083L77.7245 108.028C77.5445 108.448 77.5245 108.918 77.6945 109.338L89.3145 140.018L85.8245 76.7083L77.2145 83.1783L76.4645 89.9383Z"></path><path id="路径 14" fill-rule="evenodd" style="fill:#324763" opacity="1" d="M61.344,166.552zM61.344,166.552l0.233,0.557l-0.321,0.288z"></path><path id="路径 15" fill-rule="evenodd" style="fill:#324763" opacity="1" d="M86.1548,68.552zM86.9848,79.732l-21.2901,15.4401c-2.3799,1.7399 -4.1,4.2399 -4.8799,7.0799l-9.24,33.84c-0.75,2.73 -0.56,5.63 0.5199,8.25l6.64,15.93c-0.4699,0.83 -0.93,1.69 -1.4799,2.58c-1.4,2.32 -2.92,4.57 -4.54,6.74c-1.8001,2.39 -5.84,2.79 -10.93,2.06l-5.54,-33.54l0.1699,0.05c0.1901,0.05 0.3801,-0.06 0.43,-0.24l14.4701,-44.7c0.89,-2.78 2.7,-5.17 5.12,-6.7999c0,0 15.4299,-8.7201 23.9299,-14.7601l0.97,-0.6899c1.4001,-0.97 2.7001,-2.07 3.89,-3.2801c0.2301,-0.25 0.4201,-0.53 0.5601,-0.8399c0.12,0.0899 0.2399,0.6699 0.37,1.6999c0.2599,2.1001 0.5399,5.9801 0.83,11.18z"></path><path id="路径 16" fill-rule="evenodd" style="fill:#324763" opacity="1" d="M109.31 217.528C111.21 221.168 137.56 220.368 142.01 217.868C146.45 215.378 111.429 143.028 111.429 143.028C111.429 143.028 107.41 213.888 109.31 217.528Z"></path><path id="路径 17" fill-rule="evenodd" style="fill:#667485" opacity="1" d="M118.901,70.6914zM143.001,124.241l-0.66,-1.09l4.06,30.3l1.42,10.6l1.03,7.61l0.58,4.32l4.84,36.08c0.3,2.25 -1.09,4.35 -3.17,4.79c-8.65,1.83 -29.63,4.67 -37.96,0.46c-1.1,-0.57 -1.8,-1.7 -1.82,-2.94c-0.4,-12.99 -0.47,-44.05 0.12,-75.3c0,-0.13 0,-0.25 0,-0.38c0,-0.77 0.04,-1.53 0.05,-2.3c0,-0.61 0.02,-1.21 0.03,-1.82v-0.08c0.04,-1.9 0.08,-3.8 0.12,-5.69c0.12,-6.21 0.24,-12.28 0.37,-18.06v-0.72c0.56,-25.3196 1.02,-44.8496 1.02,-44.8496h0.02l0.31,0.28l0.43,0.54l0.1,0.12l0.84,1.02l0.04,0.05l0.49,0.61c0.79,0.92 1.7,1.73 2.72,2.4l0.13,0.08c0.17,0.1 0.34,0.19 0.51,0.28l0.28,0.14l0.74,0.34l0.35,0.18l29.42,14.22c1.38,0.68 2.51,1.76 3.25,3.11l7.35,12.7396l20.93,37.59c0.23,0.6 0.43,1.18 0.6,1.71l-12.83,0.52l-15,0.63l-3.41,-5.57z"></path><path id="路径 18" fill-rule="evenodd" style="fill:#324763" opacity="1" d="M147.622 164.053L146.202 153.453L142.142 123.153L142.802 124.253L142.742 123.873L148.382 94.5731L139.792 113.653C139.182 114.963 138.902 116.393 138.962 117.833L141.322 175.733L149.222 175.993L147.622 164.053Z"></path><path id="路径 19" fill-rule="evenodd" style="fill:#324763" opacity="1" d="M111.68,134.468zM119.06,70.7281zM117.51,95.7881l5.76,11.0299c0.15,0.3 0.17,0.65 0.06,0.96l-11.73,30.9l-0.14,0.38l0.12,-2.51l0.1,-1.99v-0.09l3.25,-67.2399l0.49,0.6c0.79,0.93 1.7,1.74 2.71,2.41l0.14,0.07c0.17,0.1 0.34,0.19 0.51,0.28l0.28,0.14l0.74,0.35l0.35,0.17l3.81,16.86c0.1,0.46 -0.06,0.94 -0.41,1.24l-5.82,5.21c-0.35,0.31 -0.44,0.82 -0.22,1.23z"></path><path id="路径 20" fill-rule="evenodd" style="fill:#213347" opacity="1" d="M88.9916 132.897L85.2316 67.697C84.0516 68.917 82.7416 70.017 81.3416 70.977L80.3716 71.677L77.3016 89.077C77.1916 89.697 77.4216 90.317 77.9016 90.707L83.5916 95.307C84.1016 95.727 84.2716 96.437 83.9916 97.047L78.8216 108.187C78.6416 108.577 78.6216 109.027 78.7716 109.427L89.2116 137.397L88.9916 132.897Z"></path><path id="路径 21" fill-rule="evenodd" style="fill:#667485" opacity="1" d="M86.1565,68.5566zM89.1565,135.707l-9.5,-26.46c-0.16,-0.41 -0.14,-0.86 0.04,-1.25l5.17,-11.1404c0.28,-0.61 0.11,-1.32 -0.4,-1.75l-5.69,-4.57c-0.48,-0.39 -0.71,-1.02 -0.6,-1.63l3.17,-17.93c1.4,-0.97 2.7,-2.07 3.89,-3.28c0.23,-0.25 0.42,-0.53 0.56,-0.84c0.12,0.09 0.24,0.67 0.36,1.7l2.29,46.1204v0.11z"></path><path id="路径 22" fill-rule="evenodd" style="fill:#213347" opacity="1" d="M119.066,70.7256zM122.126,106.616c0.2,0.38 0.23,0.83 0.1,1.24l-10.59,28.52l-0.06,0.18l-0.07,0.17l0.13,-3.55v-0.06l0.14,-4.33l2.19,-62.7604l0.1,0.12l0.84,1.03l0.04,0.05l0.49,0.6c0.78,0.93 1.7,1.74 2.71,2.41l0.13,0.07c0.17,0.1 0.34,0.19 0.51,0.28l0.28,0.14l3.72,16.78c0.14,0.61 -0.06,1.24 -0.53,1.65l-5.43,4.87c-0.5,0.44 -0.63,1.16 -0.32,1.75z"></path><path id="路径 23" fill-rule="evenodd" style="fill:#667485" opacity="1" d="M111.66 134.461ZM121.47 89.0207C121.93 88.6007 122.14 87.9707 122 87.3607L118.23 70.2807L118.1 70.2007C117.08 69.5307 116.17 68.7207 115.39 67.8007L114.9 67.1907L114.86 67.1407L114.02 66.1207L113.92 66.0007L113.49 65.4607L113.17 65.1807L112.15 109.991L112.15 110.711L111.63 133.101L111.63 133.161L111.59 134.671L111.66 134.461L121.43 107.791C121.57 107.381 121.53 106.931 121.33 106.551L115.7 95.6507C115.39 95.0607 115.53 94.3407 116.02 93.8907L121.47 89.0207Z"></path><path id="路径 24" fill-rule="evenodd" style="fill:#324763" opacity="1" d="M66.979 213.869L71.159 158.959C71.229 158.039 71.149 157.109 70.919 156.209L62.709 124.179L62.989 151.019L56.429 213.389C56.259 214.899 57.249 216.289 58.729 216.639C62.249 217.489 65.819 218.129 69.429 218.539L67.729 216.349C67.179 215.639 66.919 214.759 66.979 213.869Z"></path><path id="路径 25" fill-rule="evenodd" style="fill:#324763" opacity="1" d="M86.1564,68.552zM86.9864,79.732l-0.25,0.18l-8,5.79l2.61,-14.73c1.4,-0.97 2.7,-2.07 3.89,-3.28c0.23,-0.25 0.42,-0.53 0.56,-0.84c0.12,0.09 0.24,0.67 0.36,1.7c0.26,2.1 0.53,5.98 0.83,11.18z"></path><path id="路径 26" fill-rule="evenodd" style="fill:#324763" opacity="1" d="M50.13 160.596L3.08 145.716L0.08 154.466C-0.15 155.146 0.14 155.896 0.78 156.236C5.93 158.836 27.83 169.606 41.78 171.656C45.32 172.176 48.36 172.126 50.48 171.246L50.13 160.596Z"></path><path id="路径 27" fill-rule="evenodd" style="fill:#324763" opacity="1" d="M30.9987 136.737L29.2487 136.267L27.8587 135.897C25.8987 142.547 37.6987 166.427 37.6987 166.427C39.1187 166.877 40.3187 163.787 41.7187 164.147C41.7187 164.147 29.0687 139.547 30.9987 136.737Z"></path><path id="路径 28" fill-rule="evenodd" style="fill:#324763" opacity="1" d="M51.538 130.54L50.418 133.15L60.868 156.1C61.158 155.5 61.398 154.95 61.628 154.45L51.538 130.54Z"></path><path id="路径 29" fill-rule="evenodd" style="fill:#667485" opacity="1" d="M156.13,184.547zM160.78,178.817c-0.43,0.54 -0.85,1.07 -1.24,1.56l-0.74,0.92c-1.31,1.63 -2.26,2.79 -2.67,3.25c-4.65,2 -10.95,-1.05 -14.68,-7.38c-2.79,-4.75 -3.42,-10.09 -2.02,-14.01c0,-0.02 0,-0.03 0,-0.04l2.79,-4.01c0.01,-0.02 0.03,-0.03 0.05,-0.04c0.1,-0.08 0.21,-0.16 0.32,-0.24c4.71,-3.2 11.84,-0.2 15.92,6.72c2.62,4.46 3.36,9.43 2.27,13.27z"></path><path id="路径 30" fill-rule="evenodd" style="fill:#1B2D46" opacity="1" d="M158.739 165.156C154.659 158.236 147.529 155.236 142.819 158.446L142.499 158.676L142.449 158.716L139.659 162.726C139.659 162.736 139.659 162.746 139.659 162.756C138.259 166.686 138.889 172.026 141.679 176.776C145.409 183.106 151.709 186.156 156.359 184.166L156.379 184.166C156.789 183.696 157.739 182.536 159.049 180.916L159.789 179.986C160.179 179.496 160.599 178.966 161.029 178.416C162.099 174.566 161.379 169.616 158.739 165.156Z"></path><path id="路径 31" fill-rule="evenodd" style="fill:#667485" opacity="1" d="M156.357,184.173zM139.657,162.773zM159.797,179.983l-0.75,0.93c-1.31,1.62 -2.26,2.78 -2.67,3.25l-0.05,0.06c0.01,-0.02 0.02,-0.03 0.03,-0.05c0.6,-0.9 2.11,-4.33 -1.9,-12.92c-1.81,-3.87 -4.36,-6.03 -6.83,-7.22c-2.48,-1.17 -5.25,-1.61 -7.97,-1.26l0.03,-0.04l2.79,-4l0.03,-0.05l3.69,-5.25l7.69,-10.94l-3.79,-6.35l-7.36,-12.28l3.88,-5.11l13.22,-17.43l20.84,37.54c0.22,0.6 0.42,1.17 0.59,1.71c0.31,0.92 0.55,1.86 0.69,2.83c0.85,6.51 -13.21,25.28 -20.93,35.02c-0.43,0.55 -0.85,1.07 -1.23,1.56zM156.317,184.233c0,-0.01 0,-0.01 0.01,-0.01z"></path><path id="路径 32" fill-rule="evenodd" style="fill:#324763" opacity="1" d="M141.922,122.771l0.18,0.3l-0.07,0.47zM139.662,162.781zM164.092,135.471c1.31,1.28 3.27,1.64 4.94,0.9l2.07,-0.94l-2.62,5.65l-14.02,30.18c-1.81,-3.88 -4.36,-6.04 -6.83,-7.22c-2.48,-1.18 -5.25,-1.61 -7.97,-1.26l0.03,-0.04l2.79,-4.01l0.03,-0.04l3.69,-5.25l7.69,-10.95l-3.79,-6.34l-7.29,-11.91l-0.71,-1.19l1.49,-8.96l3.03,4.67z"></path><path id="路径 33" fill-rule="evenodd" style="fill:#FFCBB5" opacity="1" d="M119.353 43.9023C119.353 43.9023 118.353 47.1023 121.213 46.9223C123.023 46.7823 123.183 43.0923 123.373 42.2823C123.483 41.8423 126.453 35.7323 123.563 34.8823C121.373 34.2223 119.023 38.0123 119.023 38.0123L119.353 43.9023Z"></path><path id="路径 34" fill-rule="evenodd" style="fill:#FCA383" opacity="1" d="M119.734 42.1532C119.734 42.1532 119.154 43.9932 120.804 43.8932C121.844 43.8332 121.934 41.7032 122.044 41.2332C122.114 40.9832 123.814 37.4732 122.154 36.9732C120.894 36.6032 119.544 38.7832 119.544 38.7832L119.734 42.1532Z"></path><path id="路径 35" fill-rule="evenodd" style="fill:#FFCBB5" opacity="1" d="M76.8849 34.8823C73.9949 35.7323 76.9649 41.8423 77.0749 42.2823C77.2749 43.0923 77.4249 46.7823 79.2349 46.9223C82.0949 47.1023 81.0949 43.9023 81.0949 43.9023L81.4249 38.0123C81.4249 38.0123 79.0749 34.2223 76.8849 34.8823Z"></path><path id="路径 36" fill-rule="evenodd" style="fill:#FCA383" opacity="1" d="M78.2797 36.9732C76.6197 37.4732 78.3297 40.9832 78.3897 41.2332C78.4997 41.7032 78.5997 43.8332 79.6397 43.8932C81.2897 43.9932 80.7097 42.1532 80.7097 42.1532L80.8997 38.7832C80.8997 38.7832 79.5397 36.6032 78.2797 36.9732Z"></path><path id="路径 37" fill-rule="evenodd" style="fill:#FFCBB5" opacity="1" d="M120.995 33.433C120.145 17.223 111.155 4.48297 100.175 4.48297C89.1946 4.48297 80.2046 17.223 79.3546 33.433C79.3146 34.253 79.2946 35.083 79.2946 35.923C79.2946 40.303 81.1746 45.523 82.0346 49.083C82.6446 51.653 84.3946 53.813 86.7946 54.933L95.5446 59.753C98.4846 61.103 101.865 61.103 104.805 59.753L113.555 54.933C115.955 53.813 117.705 51.653 118.315 49.083C119.175 45.523 121.055 40.303 121.055 35.923C121.055 35.083 121.035 34.253 120.995 33.433Z"></path><path id="路径 38" fill-rule="evenodd" fill="url(#linear_2)" opacity="1" d="M120.93 37.24C123.34 31.49 124.05 22.62 123.37 17.05C123.14 15.12 122.29 14.1 121.23 14.2C121.11 14.21 121 14.17 120.91 14.09C120.82 14.01 120.77 13.9 120.77 13.78C120.85 12.65 120.56 10.5 120.19 9.83C119.17 8.04 109.07 -1.27 96.0401 0.15C96.0001 1.3 95.9501 2.25 95.9501 2.79C95.9301 2.92 95.8501 3.04 95.7401 3.1C95.6201 3.16 95.48 3.15 95.3601 3.09L87.9801 0.51C87.6501 0.4 87.3201 0.69 87.4601 0.97L89.09 4.22C89.16 4.37 88.9801 4.52 88.8101 4.46L81.3701 1.76C81.1101 1.67 80.8201 1.89 80.9001 2.14L81.8701 4.92C81.9401 5.14 81.84 5.37 81.6301 5.46C78.7501 6.53 76.8701 9.3 76.9301 12.37C76.9301 12.44 77.2201 16.18 77.9901 17.97C78.1101 18.24 78.1301 18.55 78.0401 18.83C76.9401 22.34 77.3801 34.56 79.7601 36.16C79.8201 36.2 79.8801 36.21 79.9401 36.19C80.0001 36.17 80.0501 36.12 80.0801 36.07C80.6901 34.17 81.1301 32.38 82.0101 30.99C82.6701 29.92 82.7301 23.91 82.4801 19.98C82.4801 19.85 82.5401 19.74 82.6401 19.67C82.7401 19.59 82.8701 19.57 82.9901 19.6C88.2701 20.62 90.0301 21.35 99.5401 21.22C104.98 21.17 110.42 20.85 115.82 20.25C116.03 20.21 116.25 20.26 116.42 20.39C116.6 20.51 116.71 20.71 116.73 20.92L116.73 30.8C116.73 30.95 116.82 31.09 116.95 31.15C117.74 31.57 120.33 32.78 120.83 36.77C120.84 36.83 120.94 37.3 120.93 37.24Z"></path><path id="路径 39" fill-rule="evenodd" fill="url(#linear_3)" opacity="1" d="M95.4982,31.3748zM94.6082,32.1248l-5.82,-0.79c-0.5099,-0.07 -1.02,-0.03 -1.52,0.09l-2.75,0.72l2.3301,-1.8601c0.5199,-0.4199 1.1899,-0.6099 1.86,-0.5199l6.1099,0.8c0.4,0.06 0.69,0.4 0.68,0.81c-0.0099,0.22 -0.11,0.43 -0.28,0.5699c-0.17,0.1401 -0.39,0.2001 -0.61,0.1801z"></path><path id="路径 40" fill-rule="evenodd" fill="url(#linear_4)" opacity="1" d="M103.589,31.0499zM110.279,31.4099l-5.85,0.44c-0.22,0.01 -0.44,-0.07 -0.6,-0.22c-0.16,-0.15 -0.24,-0.36 -0.24,-0.58c0.01,-0.4 0.32,-0.73 0.73,-0.77l6.15,-0.43c0.66,-0.05 1.32,0.18 1.81,0.62l2.2,1.99l-2.7,-0.89c-0.48,-0.15 -0.99,-0.2 -1.5,-0.16z"></path><path id="路径 41" fill-rule="evenodd" fill="url(#linear_5)" opacity="1" d="M99.1327 45.328L101.403 43.788C101.623 43.648 101.683 43.358 101.533 43.148C101.393 42.928 101.103 42.868 100.883 43.008L99.4927 43.978L100.273 38.008C100.303 37.748 100.123 37.518 99.8627 37.478C99.6027 37.448 99.3727 37.628 99.3427 37.888L98.4027 44.878C98.3827 45.068 98.4627 45.248 98.6227 45.348C98.7027 45.388 98.7827 45.418 98.8727 45.418C98.9627 45.418 99.0527 45.388 99.1327 45.328Z"></path><path id="路径 42" fill-rule="evenodd" fill="url(#linear_6)" opacity="1" d="M90.0254 33.894C89.3254 33.924 88.6854 34.304 88.3154 34.894C87.9954 35.364 87.7854 35.894 87.6954 36.454C87.6454 36.714 87.6254 36.964 87.6254 37.224C87.6254 39.064 88.6954 40.544 90.0254 40.544C91.3454 40.544 92.4154 39.064 92.4154 37.224C92.4154 35.394 91.3454 33.894 90.0254 33.894Z"></path><path id="路径 43" fill-rule="evenodd" fill="url(#linear_7)" opacity="1" d="M107.426,35.2376zM111.706,37.2976c0,1.86 -1.08,3.32 -2.4,3.32c-1.33,0 -2.4,-1.49 -2.4,-3.32c0,-0.06 0,-0.11 0,-0.17c0,-0.12 0.01,-0.24 0.03,-0.36c0.05,-0.49 0.19,-0.98 0.43,-1.42l0.06,-0.11c0.34,-0.73 1.05,-1.21 1.86,-1.26c1.34,0 2.42,1.49 2.42,3.32z"></path><path id="路径 44" fill-rule="evenodd" style="fill:#FFFFFF" opacity="1" d="M107.449,35.2404zM108.669,36.4504c-0.04,0.28 -0.19,0.53 -0.42,0.69c-0.23,0.17 -0.52,0.23 -0.8,0.18c-0.18,-0.03 -0.36,-0.09 -0.52,-0.19c0,-0.12 0.01,-0.24 0.03,-0.36c0.05,-0.5 0.19,-0.98 0.43,-1.42l0.06,-0.11h0.18c0.61,0.07 1.07,0.6 1.04,1.21z"></path><path id="路径 45" fill-rule="evenodd" style="fill:#FFFFFF" opacity="1" d="M88.264 34.8226C87.934 35.3726 87.724 35.9926 87.644 36.6226C87.744 36.6626 87.854 36.6926 87.964 36.7026C88.234 36.7726 88.524 36.7126 88.754 36.5626C88.984 36.4126 89.144 36.1726 89.204 35.9026C89.204 35.3626 88.804 34.8926 88.264 34.8226Z"></path><path id="路径 46" fill-rule="evenodd" style="fill:#CE3B22" opacity="1" d="M106.188 51.0624C105.938 50.6624 105.498 50.4324 105.028 50.4424C104.478 50.4424 103.958 50.4424 103.488 50.4424C101.238 50.4524 99.7676 50.4124 99.7676 50.4124C99.7676 50.4124 98.0676 50.4124 96.0476 50.4124L94.5176 50.4124C94.0476 50.4124 93.6176 50.6424 93.3776 51.0324C93.1376 51.4324 93.1076 51.9224 93.3176 52.3324C93.6176 52.8824 93.9876 53.3824 94.4176 53.8324C94.5376 53.9624 94.6676 54.0824 94.7976 54.1924C95.9676 55.2924 97.4676 55.9924 99.0676 56.1924L99.4276 56.2124L99.7976 56.2124L100.148 56.2124C100.268 56.1924 100.388 56.1924 100.518 56.1924C102.048 56.0024 103.498 55.3524 104.648 54.3324C104.778 54.2124 104.908 54.1024 105.028 53.9724C105.508 53.5024 105.918 52.9624 106.248 52.3624C106.458 51.9524 106.438 51.4524 106.188 51.0624Z"></path><path id="路径 47" fill-rule="evenodd" style="fill:#E76A55" opacity="1" d="M99.7513 52.6725C97.9013 52.6025 96.0713 53.0025 94.4213 53.8325C94.5413 53.9625 94.6613 54.0825 94.7913 54.1925C95.9713 55.2925 97.4713 55.9925 99.0713 56.1925L99.4313 56.2125L99.8013 56.2125L100.141 56.2125C100.271 56.1925 100.391 56.1925 100.511 56.1925C102.051 56.0025 103.491 55.3525 104.651 54.3325C104.781 54.2125 104.901 54.1025 105.031 53.9725C103.401 53.1125 101.591 52.6725 99.7513 52.6725Z"></path><path id="路径 48" fill-rule="evenodd" style="fill:#FFFFFF" opacity="1" d="M99.7935 50.431L95.4865 50.431C96.3235 50.997 97.8955 51.411 99.7005 51.411C101.604 51.434 103.264 51.044 104.064 50.45C101.487 50.454 99.7935 50.431 99.7935 50.431Z"></path><path id="路径 49" fill-rule="evenodd" style="fill:#3F79CE" opacity="1" d="M103.845,87.9991zM103.845,87.9991v0.882h-8.024l0.024,-0.357l-0.084,-0.525z"></path></g></g></g></g></g></g><defs><linearGradient id="linear_0" x1="50%" y1="100%" x2="51%" y2="0%" gradientUnits="objectBoundingBox"><stop offset="0" stop-color="#E8F7FF" stop-opacity="1" /><stop offset="1" stop-color="#7DD1FF" stop-opacity="1" /></linearGradient><rect id="path_0" x="0" y="0" width="120" height="120" /><rect id="path_1" x="0" y="0" width="182" height="220" /><filter id="filter_2" x="-6.000141659809742" y="-7.002875208854675" width="193.994873046875" height="234.0030517578125" filterUnits="userSpaceOnUse" color-interpolation-filters="sRGB"><feFlood flood-opacity="0" result="feFloodId"/>
          <feColorMatrix in="SourceAlpha" type="matrix" values="0 0 0 0 0 0 0 0 0 0 0 0 0 0 0 0 0 0 127 0" result="hardAlpha"/>
          
          <feOffset dx="1" dy="2"/>
          <feComposite in2="hardAlpha" operator="out"/>
          <feGaussianBlur stdDeviation="2.5"/>
          <feColorMatrix type="matrix" values="0 0 0 0 0.10980392156862745 0 0 0 0 0.23529411764705882 0 0 0 0 0.45098039215686275 0 0 0 0.32 0"/>
          <feBlend mode="normal" in2="filter_feFlood" result="filter_feFlood_1"/>
          <feBlend mode="normal" in="SourceGraphic" in2="filter_2" result="shape"/></filter><linearGradient id="linear_1" x1="-3.560175988092868%" y1="47.927299324347054%" x2="103.58268115476426%" y2="51.91326871210216%" gradientUnits="objectBoundingBox"><stop offset="0" stop-color="#F2A68A" stop-opacity="1" /><stop offset="1" stop-color="#FC9574" stop-opacity="1" /></linearGradient><linearGradient id="linear_2" x1="41.66194452586027%" y1="-14.290810856760547%" x2="53.10035686834982%" y2="84.80196292577808%" gradientUnits="objectBoundingBox"><stop offset="0" stop-color="#1B1B1B" stop-opacity="1" /><stop offset="0.42" stop-color="#1B1B1B" stop-opacity="1" /><stop offset="0.87" stop-color="#414144" stop-opacity="1" /></linearGradient><linearGradient id="linear_3" x1="-21.312381042999892%" y1="50.07094775957101%" x2="78.47029849481686%" y2="50.07094775957101%" gradientUnits="objectBoundingBox"><stop offset="0" stop-color="#1B1B1B" stop-opacity="1" /><stop offset="1" stop-color="#56565B" stop-opacity="1" /></linearGradient><linearGradient id="linear_4" x1="15.592842416669578%" y1="50.10965445529211%" x2="115.5913539144064%" y2="50.10965445529211%" gradientUnits="objectBoundingBox"><stop offset="0" stop-color="#56565B" stop-opacity="1" /><stop offset="1" stop-color="#1B1B1B" stop-opacity="1" /></linearGradient><linearGradient id="linear_5" x1="80.26945120798791%" y1="-8.53679661289509%" x2="43.47154972140801%" y2="102.87638156333631%" gradientUnits="objectBoundingBox"><stop offset="0" stop-color="#DE5F60" stop-opacity="0" /><stop offset="0.92" stop-color="#DE5F60" stop-opacity="1" /></linearGradient><linearGradient id="linear_6" x1="43.59235174468282%" y1="-4.884856943475242%" x2="56.01949910908905%" y2="101.95394277739001%" gradientUnits="objectBoundingBox"><stop offset="0" stop-color="#1B1B1B" stop-opacity="1" /><stop offset="1" stop-color="#56565B" stop-opacity="1" /></linearGradient><linearGradient id="linear_7" x1="43.64692695388287%" y1="-5.101329875442202%" x2="55.965064684241575%" y2="101.95667152218189%" gradientUnits="objectBoundingBox"><stop offset="0" stop-color="#1B1B1B" stop-opacity="1" /><stop offset="1" stop-color="#56565B" stop-opacity="1" /></linearGradient></defs></svg>