<svg xmlns="http://www.w3.org/2000/svg" xmlns:xlink="http://www.w3.org/1999/xlink" width="120" height="120" viewBox="0 0 120 120" fill="none"><g opacity="1"  transform="translate(0 0)  rotate(0)"><rect fill="#B02DB8" opacity="1" transform="translate(0 0)  rotate(0)" x="0" y="0" width="120" height="120" rx="16" ry="16"/><mask id="bg-mask-0" fill="white"><use transform="translate(0 0)  rotate(0)" xlink:href="#path_0"></use></mask><g mask="url(#bg-mask-0)" ><path id="圆形 1" fill-rule="evenodd" style="fill:#FFFFFF" opacity="0.16" d="M18 60C-5.2 60 -24 78.8 -24 102C-24 125.2 -5.2 144 18 144C41.2 144 60 125.2 60 102C60 78.8 41.2 60 18 60Z"></path><g opacity="1"  transform="translate(18 18)  rotate(0)"><mask id="bg-mask-1" fill="white"><use transform="translate(0 0)  rotate(0)" xlink:href="#path_1"></use></mask><g mask="url(#bg-mask-1)" ><path id="路径 1" fill-rule="evenodd" style="fill:#D896DC" opacity="1" d="M24.7884,76.4761v-1.07c0.01,-9.01 0.01,-18.03 0.02,-27.04c0.01,-13.23 0.03,-26.47 0.05,-39.7c0,-1.1 0,-1.1 1.11,-1.1c15.25,-0.01 30.5,0 45.76,-0.05c2.68,-0.01 4.77,1.93 4.76,4.78c-0.07,19.91 -0.04,39.82 -0.04,59.73c0,2.71 -1.73,4.44 -4.43,4.45c-15.41,0.01 -30.83,0.01 -46.25,0.01c-0.27,-0.01 -0.54,-0.01 -0.98,-0.01zM43.6784,59.9161c0.57,-0.21 1.1,-0.36 1.6,-0.57c4.93,-2.11 4.65,-8.05 2.33,-10.49c-1.52,-1.59 -3.44,-2.33 -5.55,-2.44c-3.17,-0.16 -6.36,-0.1 -9.55,-0.18c-0.71,-0.01 -0.84,0.26 -0.84,0.9c0.02,7.55 0.01,15.09 0.01,22.63c0,0.27 0.03,0.53 0.05,0.82h4.42v-10.23c0.79,0 1.5,0.05 2.2,-0.01c0.64,-0.07 0.97,0.19 1.26,0.74c1.61,3 3.25,5.98 4.89,8.95c0.13,0.24 0.39,0.57 0.59,0.58c1.61,0.06 3.23,0.04 5.03,0.04c-2.2,-3.67 -4.32,-7.2 -6.44,-10.74zM59.6984,60.6361c2.06,-0.07 4.05,-0.38 5.91,-1.36c4.35,-2.31 4.18,-9.36 0.41,-11.58c-1.32,-0.77 -2.75,-1.24 -4.25,-1.29c-3.05,-0.11 -6.1,-0.08 -9.15,-0.16c-0.77,-0.02 -1.02,0.18 -1.02,0.98c0.03,7.49 0.02,14.98 0.02,22.47c0,0.29 0.03,0.58 0.04,0.9h4.41c0.01,-3.32 0.01,-6.58 0.01,-9.95c1.29,0 2.46,0.03 3.62,-0.01zM20.2984,7.5361v68.91c-0.28,0.01 -0.54,0.05 -0.8,0.05c-2.53,0 -5.07,0 -7.6,0c-2.63998,-0.01 -4.38998,-1.77 -4.38998,-4.43c0.01,-20.01 0.02,-40.03 0.03,-60.06c0,-2.68 1.78,-4.45 4.44998,-4.46c2.48,-0.01 4.96,-0.01 7.44,-0.01z"></path><path id="路径 1" fill-rule="evenodd" style="fill:#FFFFFF" opacity="1" d="M24.7888,76.4761v-1.07c0.01,-9.01 0.01,-18.03 0.02,-27.04c0.01,-13.23 0.03,-26.47 0.05,-39.7c0,-1.1 0,-1.1 1.11,-1.1c15.25,-0.01 30.5,0 45.75,-0.05c2.69,-0.01 4.78,1.93 4.77,4.78c-0.07,19.91 -0.04,39.82 -0.04,59.73c0,2.71 -1.73,4.44 -4.43,4.45c-15.41,0.01 -30.83,0.01 -46.25,0.01c-0.27,-0.01 -0.54,-0.01 -0.98,-0.01zM43.6788,59.9161c0.57,-0.21 1.1,-0.36 1.6,-0.57c4.93,-2.11 4.65,-8.05 2.33,-10.49c-1.53,-1.59 -3.44,-2.33 -5.55,-2.44c-3.17,-0.16 -6.36,-0.1 -9.55,-0.18c-0.71,-0.01 -0.84,0.26 -0.84,0.9c0.02,7.55 0.01,15.09 0.01,22.63c0,0.27 0.03,0.53 0.05,0.82h4.42v-10.23c0.79,0 1.5,0.05 2.2,-0.01c0.64,-0.07 0.97,0.19 1.26,0.74c1.61,3 3.24,5.98 4.89,8.95c0.13,0.24 0.39,0.57 0.59,0.58c1.61,0.06 3.23,0.04 5.03,0.04c-2.2,-3.67 -4.32,-7.2 -6.44,-10.74zM59.6988,60.6361c2.06,-0.07 4.05,-0.38 5.91,-1.36c4.35,-2.31 4.18,-9.36 0.41,-11.58c-1.32,-0.77 -2.75,-1.24 -4.25,-1.29c-3.05,-0.11 -6.1,-0.08 -9.15,-0.16c-0.77,-0.02 -1.02,0.18 -1.02,0.98c0.03,7.49 0.02,14.98 0.02,22.47c0,0.29 0.02,0.58 0.04,0.9h4.41c0,-3.32 0,-6.58 0,-9.95c1.3,0 2.47,0.03 3.63,-0.01z"></path><path id="路径 2" fill-rule="evenodd" style="fill:#FFFFFF" opacity="1" d="M36.1476,56.5919v-6.58c2.21,0.12 4.41,-0.3 6.54,0.43c1.35,0.46 2.03,1.44 2.06,2.74c0.02,1.49 -0.61,2.49 -1.99,3.05c-0.42,0.16 -0.88,0.33 -1.33,0.35c-1.73,0.04 -3.46,0.01 -5.28,0.01zM56.1076,57.0119v-7.06c1.91,0.11 3.79,0.09 5.62,0.35c1.71,0.25 2.59,1.4 2.62,2.94c0.04,1.69 -0.74,2.92 -2.47,3.25c-1.86,0.34 -3.79,0.35 -5.77,0.52z"></path></g></g></g></g><defs><rect id="path_0" x="0" y="0" width="120" height="120" /><rect id="path_1" x="0" y="0" width="84" height="84" /></defs></svg>