<svg xmlns="http://www.w3.org/2000/svg" xmlns:xlink="http://www.w3.org/1999/xlink" width="120" height="120" viewBox="0 0 120 120" fill="none"><g opacity="1"  transform="translate(0 0)  rotate(0)"><rect fill="#1471B6" opacity="1" transform="translate(0 0)  rotate(0)" x="0" y="0" width="120" height="120" rx="16" ry="16"/><mask id="bg-mask-0" fill="white"><use transform="translate(0 0)  rotate(0)" xlink:href="#path_0"></use></mask><g mask="url(#bg-mask-0)" ><path id="圆形 1" fill-rule="evenodd" style="fill:#FFFFFF" opacity="0.16" d="M18 60C-5.2 60 -24 78.8 -24 102C-24 125.2 -5.2 144 18 144C41.2 144 60 125.2 60 102C60 78.8 41.2 60 18 60Z"></path><g opacity="1"  transform="translate(21 23)  rotate(0)"><mask id="bg-mask-1" fill="white"><use transform="translate(0 0)  rotate(0)" xlink:href="#path_1"></use></mask><g mask="url(#bg-mask-1)" ><path id="路径 1" fill-rule="evenodd" style="fill:#FFFFFF" opacity="1" d="M4.875,0h68.25l-6.21,70.08l-27.99,7.92l-27.84,-7.92zM17.585,14.33l0.69,8.52l32.91,0.01l-0.83,8.83h-21.58l0.78,8.36h20.09l-1.19,11.45l-9.46,2.61l-9.61,-2.63l-0.61,-6.86h-8.48l0.94,12.53l17.76,5.54l17.47,-4.98l3.95,-43.36v-0.01z"></path><path id="交集" fill-rule="evenodd" style="fill:#8AB8DB" opacity="1" d="M39,62.6886l17.465,-4.9786l3.95,-43.36v-0.01l-21.415,-0.005v-14.335h34.125l-6.21,70.08l-27.915,7.8988zM39,40.05h10.645l-1.19,11.45l-9.455,2.6086zM39,22.8563l12.185,0.0037l-0.83,8.83h-11.355z"></path></g></g></g></g><defs><rect id="path_0" x="0" y="0" width="120" height="120" /><rect id="path_1" x="0" y="0" width="78" height="78" /></defs></svg>