<svg xmlns="http://www.w3.org/2000/svg" xmlns:xlink="http://www.w3.org/1999/xlink" width="120" height="120" viewBox="0 0 120 120" fill="none"><g opacity="1"  transform="translate(0 0)  rotate(0)"><rect fill="#61DAFB" opacity="1" transform="translate(0 0)  rotate(0)" x="0" y="0" width="120" height="120" rx="16" ry="16"/><mask id="bg-mask-0" fill="white"><use transform="translate(0 0)  rotate(0)" xlink:href="#path_0"></use></mask><g mask="url(#bg-mask-0)" ><path id="圆形 1" fill-rule="evenodd" style="fill:#FFFFFF" opacity="0.16" d="M18 60C-5.2 60 -24 78.8 -24 102C-24 125.2 -5.2 144 18 144C41.2 144 60 125.2 60 102C60 78.8 41.2 60 18 60Z"></path><g opacity="1"  transform="translate(24 33)  rotate(0)"><mask id="bg-mask-1" fill="white"><use transform="translate(0 0)  rotate(0)" xlink:href="#path_1"></use></mask><g mask="url(#bg-mask-1)" ><path id="路径 1" fill-rule="evenodd" style="fill:#B0EDFD" opacity="1" d="M50.3584 59.4751C50.6084 59.0851 50.6084 58.5951 50.3584 58.2051C50.1184 57.8151 49.6784 57.5951 49.2283 57.6451L22.8184 57.6451C22.3584 57.5951 21.9184 57.8151 21.6784 58.2051C21.4384 58.5951 21.4384 59.0851 21.6784 59.4751C21.9184 59.8551 22.3584 60.0751 22.8184 60.0351L49.2283 60.0351C49.6784 60.0751 50.1184 59.8551 50.3584 59.4751Z"></path><path id="路径 2" fill-rule="evenodd" style="fill:#B0EDFD" opacity="1" d="M42.03,60.03h-11.98c-0.66,0 -1.2,-0.53 -1.2,-1.19v-8.41c0,-0.43 0.23,-0.83 0.6,-1.04c0.37,-0.22 0.83,-0.22 1.2,0c0.37,0.21 0.6,0.61 0.6,1.04v7.21h9.61v-6.01c0,-0.66 0.54,-1.2 1.2,-1.2c0.66,0 1.2,0.54 1.2,1.2v7.21c0,0.33 -0.13,0.64 -0.36,0.86c-0.24,0.23 -0.55,0.35 -0.87,0.33zM68.45,48.04h-64.83997c-1.99,-0.02 -3.6,-1.62 -3.61,-3.61v-3.44c0,-0.66 0.54,-1.2 1.2,-1.2c0.67,0 1.2,0.54 1.2,1.2v3.44c0,0.66 0.54,1.2 1.21,1.2h64.83997c0.66,-0.01 1.19,-0.54 1.2,-1.2v-40.82c-0.01,-0.67 -0.54,-1.2 -1.2,-1.21h-19.57c-0.66,0 -1.2,-0.53 -1.2,-1.2c0,-0.66 0.54,-1.2 1.2,-1.2h19.57c1.98,0.01 3.59,1.62 3.59,3.61v40.82c0,1.98 -1.61,3.59 -3.59,3.61zM1.20003,37.4c-0.48,0 -0.92,-0.3 -1.11,-0.75c-0.18,-0.45 -0.08,-0.96 0.26,-1.31c0.35,-0.34 0.86,-0.44 1.31,-0.26c0.45,0.19 0.74,0.63 0.74,1.11c-0.01,0.66 -0.54,1.19 -1.2,1.21zM1.20003,32.59c-0.66,0 -1.2,-0.54 -1.2,-1.2v-27.83c0.02,-1.97 1.63,-3.56 3.61,-3.56h40.46997c0.67,0 1.21,0.54 1.21,1.2c0,0.67 -0.54,1.2 -1.21,1.2h-40.46997c-0.67,0 -1.21,0.54 -1.21,1.21v27.82c-0.02,0.65 -0.55,1.16 -1.2,1.16z"></path><path id="路径 3" fill-rule="evenodd" style="fill:#FFFFFF" opacity="1" d="M22.6109,21.4154h2.51c0.56,-0.01 1.12,0.05 1.67,0.18c0.46,0.12 0.9,0.34 1.26,0.66c1.05,1 1.59,2.41 1.48,3.85c0,0.52 -0.05,1.04 -0.15,1.55c-0.09,0.45 -0.24,0.88 -0.44,1.28c-0.22,0.38 -0.49,0.72 -0.8,1.01c-0.25,0.23 -0.53,0.41 -0.84,0.55c-0.31,0.14 -0.63,0.24 -0.97,0.29c-0.37,0.06 -0.74,0.09 -1.11,0.09h-2.56c-0.27,0.01 -0.54,-0.04 -0.79,-0.16c-0.17,-0.1 -0.3,-0.26 -0.35,-0.45c-0.06,-0.24 -0.08,-0.49 -0.07,-0.74v-6.93c-0.04,-0.33 0.06,-0.65 0.27,-0.9c0.25,-0.21 0.57,-0.31 0.89,-0.28zM23.3709,29.3454h2.21c0.18,-0.02 0.37,-0.07 0.55,-0.13c0.18,-0.06 0.35,-0.16 0.5,-0.29c0.72,-0.74 1.08,-1.77 0.97,-2.8c0.04,-0.73 -0.1,-1.45 -0.42,-2.1c-0.23,-0.41 -0.6,-0.73 -1.05,-0.89c-0.48,-0.13 -0.99,-0.19 -1.49,-0.19l-1.27,-0.02zM35.3709,21.2454c0.88,-0.02 1.75,0.19 2.53,0.6c0.69,0.4 1.25,0.99 1.6,1.71c0.38,0.8 0.58,1.68 0.57,2.58c0,0.67 -0.1,1.34 -0.29,1.99c-0.19,0.57 -0.49,1.1 -0.89,1.56c-0.41,0.43 -0.91,0.78 -1.46,1c-0.63,0.24 -1.31,0.36 -1.98,0.34c-0.71,0.02 -1.41,-0.1 -2.06,-0.35c-0.56,-0.23 -1.05,-0.57 -1.46,-1.01c-0.41,-0.46 -0.71,-0.99 -0.89,-1.57c-0.21,-0.64 -0.31,-1.31 -0.3,-1.97c-0.01,-0.68 0.09,-1.36 0.31,-2.01c0.19,-0.57 0.5,-1.1 0.9,-1.54c0.4,-0.43 0.89,-0.77 1.44,-0.98c0.63,-0.24 1.3,-0.36 1.98,-0.35zM37.7509,24.3154c-0.19,-0.46 -0.53,-0.85 -0.96,-1.11c-0.42,-0.26 -0.92,-0.4 -1.42,-0.39c-0.38,-0.01 -0.76,0.07 -1.11,0.22c-0.33,0.15 -0.62,0.36 -0.85,0.63c-0.26,0.33 -0.44,0.71 -0.54,1.11c-0.29,0.94 -0.29,1.95 0,2.89c0.1,0.41 0.3,0.79 0.56,1.12c0.24,0.27 0.53,0.49 0.86,0.63c0.33,0.14 0.69,0.22 1.05,0.21c0.5,-0.02 0.98,-0.19 1.39,-0.49c0.43,-0.26 0.77,-0.65 0.98,-1.11c0.27,-0.6 0.4,-1.25 0.39,-1.9c0.01,-0.62 -0.1,-1.24 -0.35,-1.81zM44.8609,29.4454l-1.46,-6.07v6.53c0.03,0.29 -0.05,0.58 -0.24,0.81c-0.16,0.18 -0.39,0.28 -0.63,0.27c-0.24,0.01 -0.48,-0.09 -0.64,-0.27c-0.18,-0.23 -0.27,-0.52 -0.24,-0.81v-7.45c-0.05,-0.31 0.08,-0.62 0.32,-0.82c0.26,-0.16 0.56,-0.24 0.87,-0.22h0.56c0.27,-0.01 0.53,0.02 0.78,0.1c0.16,0.06 0.29,0.18 0.36,0.34c0.11,0.27 0.2,0.55 0.27,0.83l1.34,5.14l1.37,-5.18c0.07,-0.28 0.16,-0.55 0.27,-0.82c0.07,-0.16 0.2,-0.28 0.36,-0.35c0.25,-0.07 0.51,-0.11 0.78,-0.1h0.59c0.3,-0.01 0.6,0.07 0.86,0.23c0.25,0.2 0.37,0.51 0.33,0.82v7.49c0.02,0.29 -0.07,0.58 -0.24,0.81c-0.17,0.18 -0.41,0.28 -0.65,0.27c-0.24,0.01 -0.47,-0.09 -0.63,-0.27c-0.18,-0.22 -0.27,-0.52 -0.24,-0.81v-6.54l-1.52,6.03c-0.1,0.39 -0.17,0.67 -0.24,0.86c-0.08,0.19 -0.19,0.36 -0.35,0.5c-0.19,0.15 -0.44,0.23 -0.69,0.22c-0.2,0.01 -0.39,-0.04 -0.56,-0.14c-0.15,-0.1 -0.28,-0.22 -0.37,-0.37c-0.09,-0.16 -0.16,-0.33 -0.2,-0.5c-0.06,-0.15 -0.1,-0.34 -0.16,-0.53z"></path><path id="路径 4" fill-rule="evenodd" style="fill:#FFFFFF" opacity="1" d="M60.8797,39.5705c0,0.22 -0.09,0.45 -0.25,0.61c-0.16,0.16 -0.38,0.25 -0.61,0.25h-48.02c-0.48,0 -0.87,-0.38 -0.87,-0.86v-29.75005c0,-1.23 1,-2.23 2.23,-2.23h45.29c1.23,0 2.23,1 2.23,2.23zM59.1497,38.7005v-23.13h-39.77c-0.31,0 -0.6,-0.17 -0.75,-0.43c-0.16,-0.27 -0.16,-0.6 0,-0.87c0.15,-0.27 0.44,-0.44 0.75,-0.44h39.77v-4.01005c0,-0.13 -0.05,-0.26 -0.14,-0.35c-0.09,-0.09 -0.22,-0.14 -0.35,-0.14h-45.3c-0.26,0.01 -0.46,0.23 -0.46,0.49v4.02005h2.74c0.48,0 0.87,0.39 0.87,0.87c0,0.48 -0.39,0.87 -0.87,0.87h-2.74v23.12z"></path><path id="路径 5" fill-rule="evenodd" style="fill:#FFFFFF" opacity="1" d="M16.2532,11.6992c0,0.48 -0.39,0.87 -0.87,0.87c-0.48,0 -0.87,-0.39 -0.87,-0.87c0,-0.48 0.39,-0.87 0.87,-0.87c0.48,0 0.87,0.39 0.87,0.87zM19.3732,11.6992c0,0.48 -0.38,0.87 -0.86,0.87c-0.48,0 -0.87,-0.39 -0.87,-0.87c0,-0.48 0.39,-0.87 0.87,-0.87c0.48,0 0.86,0.39 0.86,0.87zM22.4932,11.6992c0,0.48 -0.39,0.87 -0.87,0.87c-0.48,0 -0.87,-0.39 -0.87,-0.87c0,-0.48 0.39,-0.87 0.87,-0.87c0.48,0 0.87,0.39 0.87,0.87z"></path></g></g></g></g><defs><rect id="path_0" x="0" y="0" width="120" height="120" /><rect id="path_1" x="0" y="0" width="72" height="72" /></defs></svg>