<svg xmlns="http://www.w3.org/2000/svg" xmlns:xlink="http://www.w3.org/1999/xlink" width="120" height="120" viewBox="0 0 120 120" fill="none"><g opacity="1"  transform="translate(0 0)  rotate(0)"><rect fill="#E43961" opacity="1" transform="translate(0 0)  rotate(0)" x="0" y="0" width="120" height="120" rx="16" ry="16"/><mask id="bg-mask-0" fill="white"><use transform="translate(0 0)  rotate(0)" xlink:href="#path_0"></use></mask><g mask="url(#bg-mask-0)" ><path id="圆形 1" fill-rule="evenodd" style="fill:#FFFFFF" opacity="0.16" d="M18 60C-5.2 60 -24 78.8 -24 102C-24 125.2 -5.2 144 18 144C41.2 144 60 125.2 60 102C60 78.8 41.2 60 18 60Z"></path><g opacity="1"  transform="translate(15 15)  rotate(0)"><mask id="bg-mask-1" fill="white"><use transform="translate(0 0)  rotate(0)" xlink:href="#path_1"></use></mask><g mask="url(#bg-mask-1)" ><path id="路径 1" fill-rule="evenodd" fill="url(#linear_0)" opacity="1" d="M23.0579,18.7578c-9.16,5.25 -13.94997,15.61 -12.25,26.47c2.64,16.87 16.46,28.37 32.9,28.37c1.92,0 3.87,-0.16 5.84,-0.48c6.74,-1.1 12.36,-4.3 17.49,-8.66c1.63,-1.38 3.21,-2.05 4.66,-2.05c2.2,0 4.12,1.53 5.51,4.45c0.16,0.35 0.52,0.84 0.8,0.84c0.02,0 0.05,0 0.08,-0.01c2.13,-0.92 1.37,-7.4 -2.55,-8.92c-1.88,-0.73 -2.35,-1.8 -2.74,-3.56c-0.59,-2.65 -2.47,-4.14 -4.89,-4.14c-1.1,0 -2.3,0.3 -3.54,0.94c0.97,0.69 1.69,1.11 2.3,1.65c2.48,2.26 2.81,5.35 0.89,7.92c-1.16,1.56 -2.9,2.4 -4.68,2.4c-0.98,0 -1.96,-0.26 -2.87,-0.79c-2.72,-1.58 -3.69,-4.62 -2.37,-7.62c0.48,-1.07 1.11,-2.08 1.62,-3.14c5.2,-10.79 2.33,-24.19 -6.71,-31.41c-4.81,-3.85 -10.55,-5.81 -16.35,-5.81c-4.48,0 -8.99,1.17 -13.14,3.55zM36.1979,10.2878c7.08,0 13.79,2.38 19.43,6.88c8.65,6.92 12.57,18.24 10.72,29.09c0.52,-0.08 1.04,-0.11 1.56,-0.11c4.82,0 8.62,3.14 9.7,8c0.01,0.06 0.02,0.11 0.03,0.16c4.41,1.89 6.46,6.58 6.53,10.47c0.07,3.5 -1.48,6.28 -4.13,7.43c-0.62,0.26 -1.36,0.42 -2.03,0.42c-2.2,0 -4.16,-1.37 -5.25,-3.66c-0.52,-1.11 -0.97,-1.51 -1.12,-1.62c-0.17,0.04 -0.64,0.21 -1.41,0.86c-6.39,5.43 -12.89,8.63 -19.88,9.77c-2.21,0.36 -4.44,0.54 -6.64,0.54c-19.23,0 -34.75997,-13.38 -37.75997,-32.53c-2.02,-12.88 3.74,-25.24 14.65997,-31.5c4.8,-2.75 10.19,-4.2 15.59,-4.2zM62.8779,59.0478c0.16,0.01 0.47,-0.05 0.74,-0.41c0.28,-0.38 0.48,-0.65 -0.26,-1.33c-0.13,-0.12 -0.47,-0.35 -0.81,-0.57c-0.15,0.29 -0.29,0.56 -0.4,0.81c-0.42,0.95 0.02,1.2 0.34,1.39c0.13,0.08 0.29,0.11 0.39,0.11z"></path></g></g></g></g><defs><rect id="path_0" x="0" y="0" width="120" height="120" /><rect id="path_1" x="0" y="0" width="90" height="90" /><linearGradient id="linear_0" x1="28.305999999999997%" y1="50%" x2="87.06%" y2="50%" gradientUnits="objectBoundingBox"><stop offset="0" stop-color="#FFFFFF" stop-opacity="1" /><stop offset="1" stop-color="#F19CB0" stop-opacity="1" /></linearGradient></defs></svg>