<svg xmlns="http://www.w3.org/2000/svg" xmlns:xlink="http://www.w3.org/1999/xlink" width="120" height="120" viewBox="0 0 120 120" fill="none"><g opacity="1"  transform="translate(0 0)  rotate(0)"><rect fill="#FF6155" opacity="1" transform="translate(0 0)  rotate(0)" x="0" y="0" width="120" height="120" rx="16" ry="16"/><mask id="bg-mask-0" fill="white"><use transform="translate(0 0)  rotate(0)" xlink:href="#path_0"></use></mask><g mask="url(#bg-mask-0)" ><path id="圆形 1" fill-rule="evenodd" style="fill:#FFFFFF" opacity="0.16" d="M18 60C-5.2 60 -24 78.8 -24 102C-24 125.2 -5.2 144 18 144C41.2 144 60 125.2 60 102C60 78.8 41.2 60 18 60Z"></path><g opacity="1"  transform="translate(18 18)  rotate(0)"><mask id="bg-mask-1" fill="white"><use transform="translate(0 0)  rotate(0)" xlink:href="#path_1"></use></mask><g mask="url(#bg-mask-1)" ><path id="路径 1" fill-rule="evenodd" style="fill:#FFB0AA" opacity="1" d="M75.304,36.75h-7.05v3.44h7.05zM75.304,31.5c1.42,0 2.65,0.52 3.69,1.56c1.05,1.04 1.56,2.27 1.56,3.69v3.44c0,1.42 -0.52,2.66 -1.56,3.7c-1.03,1.04 -2.26,1.56 -3.69,1.55h-7.05v7.06h-5.25v-21zM43.804,36.75v-5.25h15.75v5.25h-5.25v15.75h-5.25v-15.75zM24.444,36.75v-5.25h15.75v5.25h-5.25v15.75h-5.25v-15.75zM15.754,38.56v-7.06h5.25v21h-5.25v-8.69h-7.06v8.69h-5.25v-21h5.25v7.06z"></path><path id="路径 1" fill-rule="evenodd" style="fill:#FFFFFF" opacity="1" d="M75.304,36.75h-7.05v3.44h7.05zM75.304,31.5c1.42,0 2.65,0.52 3.69,1.56c1.05,1.04 1.56,2.27 1.56,3.69v3.44c0,1.42 -0.52,2.66 -1.56,3.7c-1.03,1.04 -2.26,1.56 -3.69,1.55h-7.05v7.06h-5.25v-21zM43.804,36.75v-5.25h15.75v5.25h-5.25v15.75h-5.25v-15.75zM24.444,36.75v-5.25h15.75v5.25h-5.25v15.75h-5.25v-15.75z"></path></g></g></g></g><defs><rect id="path_0" x="0" y="0" width="120" height="120" /><rect id="path_1" x="0" y="0" width="84" height="84" /></defs></svg>