<svg xmlns="http://www.w3.org/2000/svg" xmlns:xlink="http://www.w3.org/1999/xlink" width="120" height="120" viewBox="0 0 120 120" fill="none"><g opacity="1"  transform="translate(0 0)  rotate(0)"><rect fill="#33CAFF" opacity="1" transform="translate(0 0)  rotate(0)" x="0" y="0" width="120" height="120" rx="16" ry="16"/><mask id="bg-mask-0" fill="white"><use transform="translate(0 0)  rotate(0)" xlink:href="#path_0"></use></mask><g mask="url(#bg-mask-0)" ><path id="圆形 1" fill-rule="evenodd" style="fill:#FFFFFF" opacity="0.16" d="M18 60C-5.2 60 -24 78.8 -24 102C-24 125.2 -5.2 144 18 144C41.2 144 60 125.2 60 102C60 78.8 41.2 60 18 60Z"></path><g opacity="1"  transform="translate(18 27)  rotate(0)"><mask id="bg-mask-1" fill="white"><use transform="translate(0 0)  rotate(0)" xlink:href="#path_1"></use></mask><g mask="url(#bg-mask-1)" ><path id="路径 1" fill-rule="evenodd" style="fill:#99E5FF" opacity="1" d="M78.5028,28.0597c0,1.41 0.87,2.9 3.5,2.98v3.5c-2.63,0.13 -3.5,1.62 -3.5,3.03c0,2.61 0.41,4.1 0.41,6.99c0,4.38 -1.63,5.79 -5.19,5.79h-2.63v-3.23h0.81v-0.06c1.74,0 2.22,-0.6 2.22,-2.9c0,-2.21 -0.21,-4.17 -0.21,-6.59c0,-3.1 1,-4.31 3.03,-4.78v-0.21c-2.02,-0.47 -3.03,-1.68 -3.03,-4.78c0,-2.42 0.21,-4.51 0.21,-6.6c0,-2.22 -0.4,-2.83 -2.22,-2.83h-0.81v-3.1h2.63c3.58,0 5.19,1.41 5.19,5.79c0,2.82 -0.41,4.37 -0.41,7zM64.9728,32.1597c2.63,0.87 5.51,2.42 5.51,6.12c0,3.71 -2.9,6.54 -8.28,6.54c-2.56,0 -5.65,-1.15 -7.67,-2.83l2.69,-3.91c1.82,1.41 3.51,2.09 5.19,2.09c1.82,0 2.62,-0.67 2.62,-1.68c0,-1.35 -2.02,-2.03 -4.11,-2.83c-2.42,-0.94 -5.32,-2.63 -5.32,-5.92c0,-3.7 3.1,-6.33 7.68,-6.33c3.1,0 5.39,1.34 7.07,2.63l-2.69,3.56c-1.47,-1.08 -2.82,-1.68 -4.3,-1.68c-1.49,0 -2.3,0.6 -2.3,1.61c0,1.35 1.89,1.82 3.91,2.63zM18.9928,39.7697c0.2,0 0.39,0 0.79,-0.1l0.68,4.38c-0.73,0.27 -1.74,0.47 -3.02,0.47c-4.12,0 -5.53,-2.69 -5.53,-6.8v-19.32h-1.8c-1.74998,0 -2.21998,0.61 -2.21998,2.83c0,2.22 0.2,4.18 0.2,6.6c0,3.1 -0.99,4.3 -3.02,4.78v0.2c2.01,0.48 3.02,1.68 3.02,4.78c0,2.49 -0.2,4.38 -0.2,6.6c0,2.22 0.54,2.9 2.21998,2.9h0.8v3.1h-2.61998c-3.58,0 -5.19,-1.41 -5.19,-5.79c0,-2.9 0.41,-4.39 0.41,-6.87c0,-1.41 -0.87,-2.9 -3.5,-2.96v-3.5c2.63,-0.13 3.5,-1.61 3.5,-3.02c0,-2.49 -0.41,-4.1 -0.41,-7c0,-4.38 1.61,-5.79 5.25,-5.79h9.55998v22.83c0,1.27 0.6,1.68 1.08,1.68zM48.6728,32.1597c2.63,0.87 5.52,2.42 5.51,6.12c0,3.71 -2.89,6.54 -8.28,6.54c-2.56,0 -5.65,-1.15 -7.67,-2.83l2.63,-3.91c1.82,1.41 3.51,2.09 5.19,2.09c1.81,0 2.62,-0.67 2.62,-1.68c0,-1.35 -2.02,-2.03 -4.11,-2.83c-2.42,-0.94 -5.32,-2.63 -5.32,-5.92c0,-3.7 3.1,-6.33 7.68,-6.33c3.1,0 5.39,1.34 7.07,2.63l-2.69,3.56c-1.47,-1.08 -2.82,-1.68 -4.31,-1.68c-1.48,0 -2.29,0.6 -2.29,1.61c0,1.35 1.88,1.82 3.97,2.63zM28.8128,23.3397c5.65,0 8.63,4.25 8.55,9.7c0,1.08 -0.14,2.02 -0.21,2.49h-12.19c0.53,3.1 2.62,4.38 5.31,4.38c1.49,0 2.9,-0.41 4.39,-1.28l2.02,3.56c-2.09,1.42 -4.78,2.3 -7.2,2.3c-5.78,0 -10.16,-3.91 -10.16,-10.58c-0.13,-6.45 4.57,-10.57 9.49,-10.57zM32.2528,31.8297c0,-2.3 -0.95,-3.98 -3.37,-3.98c-1.89,0 -3.5,1.29 -3.91,3.98z"></path><path id="路径 1" fill-rule="evenodd" style="fill:#FFFFFF" opacity="1" d="M64.9687,32.1544c2.63,0.88 5.51,2.43 5.51,6.13c0,3.7 -2.89,6.53 -8.27,6.53c-2.57,0 -5.65,-1.15 -7.68,-2.83l2.69,-3.91c1.82,1.41 3.51,2.09 5.19,2.09c1.82,0 2.63,-0.66 2.63,-1.68c0,-1.34 -2.03,-2.02 -4.12,-2.83c-2.42,-0.93 -5.31,-2.62 -5.31,-5.92c0,-3.7 3.1,-6.33 7.67,-6.33c3.1,0 5.4,1.35 7.07,2.63l-2.69,3.56c-1.47,-1.07 -2.81,-1.68 -4.3,-1.68c-1.49,0 -2.29,0.61 -2.29,1.62c0,1.34 1.88,1.82 3.9,2.62zM48.6787,32.1544c2.62,0.88 5.52,2.43 5.51,6.13c0,3.7 -2.9,6.53 -8.28,6.53c-2.56,0 -5.65,-1.15 -7.68,-2.83l2.63,-3.91c1.82,1.41 3.51,2.09 5.19,2.09c1.82,0 2.63,-0.66 2.63,-1.68c0,-1.34 -2.03,-2.02 -4.12,-2.83c-2.42,-0.93 -5.31,-2.62 -5.31,-5.92c0,-3.7 3.1,-6.33 7.67,-6.33c3.1,0 5.39,1.35 7.07,2.63l-2.69,3.56c-1.47,-1.07 -2.82,-1.68 -4.3,-1.68c-1.49,0 -2.3,0.61 -2.3,1.62c0,1.34 1.89,1.82 3.98,2.62zM28.8187,23.3444c5.65,0 8.62,4.24 8.54,9.7c0,1.08 -0.14,2.01 -0.2,2.48h-12.2c0.54,3.11 2.63,4.39 5.32,4.39c1.48,0 2.89,-0.41 4.38,-1.28l2.02,3.56c-2.08,1.42 -4.78,2.29 -7.2,2.29c-5.78,0 -10.16,-3.91 -10.16,-10.57c-0.13,-6.46 4.58,-10.57 9.5,-10.57zM32.2487,31.8244c0,-2.29 -0.95,-3.97 -3.37,-3.97c-1.88,0 -3.5,1.28 -3.91,3.97z"></path></g></g></g></g><defs><rect id="path_0" x="0" y="0" width="120" height="120" /><rect id="path_1" x="0" y="0" width="82" height="82" /></defs></svg>