<svg xmlns="http://www.w3.org/2000/svg" xmlns:xlink="http://www.w3.org/1999/xlink" width="120" height="120" viewBox="0 0 120 120" fill="none"><g opacity="1"  transform="translate(0 0)  rotate(0)"><rect fill="#9280F5" opacity="1" transform="translate(0 0)  rotate(0)" x="0" y="0" width="120" height="120" rx="16" ry="16"/><mask id="bg-mask-0" fill="white"><use transform="translate(0 0)  rotate(0)" xlink:href="#path_0"></use></mask><g mask="url(#bg-mask-0)" ><path id="圆形 1" fill-rule="evenodd" style="fill:#FFFFFF" opacity="0.16" d="M18 60C-5.2 60 -24 78.8 -24 102C-24 125.2 -5.2 144 18 144C41.2 144 60 125.2 60 102C60 78.8 41.2 60 18 60Z"></path><g opacity="1"  transform="translate(24 24)  rotate(0)"><mask id="bg-mask-1" fill="white"><use transform="translate(0 0)  rotate(0)" xlink:href="#path_1"></use></mask><g mask="url(#bg-mask-1)" ><path id="路径 1" fill-rule="evenodd" style="fill:#C9C0FA" opacity="1" d="M63.0656,3.30469c1.32,0 2.54,0.32 3.66,0.95c1.13,0.63 2,1.51 2.64,2.64c0.63,1.12 0.95,2.34 0.95,3.65001v50.91c0,2.01 -0.71,3.72 -2.11,5.13c-1.41,1.41 -3.12,2.11 -5.14,2.11h-54.48998c-2.00999,0 -3.74,-0.7 -5.16999,-2.11c-1.43,-1.41 -2.14001,-3.12 -2.14001,-5.13v-50.91c0,-2.01001 0.71001,-3.72001 2.14001,-5.13001c1.42999,-1.41 3.16,-2.11 5.16999,-2.11zM66.7256,10.5447c0,-0.65001 -0.16,-1.26001 -0.49,-1.83001c-0.33,-0.56 -0.77,-0.99 -1.34,-1.3c-0.56,-0.3 -1.17,-0.45 -1.83,-0.45h-54.48998c-0.65,0 -1.25999,0.15 -1.82999,0.45c-0.56,0.31 -1,0.74 -1.33,1.3c-0.33001,0.57 -0.49001,1.18 -0.49001,1.83001v50.91c0,0.98 0.35001,1.84 1.05001,2.56c0.69999,0.73 1.57,1.09 2.59999,1.09h54.48998c0.66,0 1.27,-0.16 1.83,-0.49c0.57,-0.33 1.01,-0.77 1.34,-1.33c0.33,-0.57 0.49,-1.18 0.49,-1.83z"></path><path id="路径 2" fill-rule="evenodd" style="fill:#FFFFFF" opacity="1" d="M23.1309 45.823C23.1309 45.743 23.1409 45.653 23.1309 45.573L23.2009 26.493C23.2109 26.403 23.2009 26.323 23.2009 26.233C23.2009 25.133 22.3309 24.233 21.2509 24.233C20.1709 24.233 19.3009 25.113 19.2809 26.213L19.2809 31.963C19.2809 34.913 19.2809 36.573 19.2509 39.333C18.4009 37.113 17.5809 35.503 16.4409 33.423L12.6909 26.213L12.6409 26.073C12.1809 25.073 11.4609 23.673 10.0109 23.673C8.56094 23.673 7.42094 24.813 7.42094 26.213C7.42094 26.393 7.38094 26.563 7.42094 26.733L7.43094 45.893C7.56094 46.873 8.44094 47.623 9.44094 47.623C10.4409 47.623 11.2109 46.873 11.3409 45.893L11.3409 45.863C11.3509 45.783 11.3409 45.703 11.3409 45.613C11.3409 45.523 11.3609 45.433 11.3409 45.343L11.3409 39.333C11.3409 36.143 11.4909 34.083 11.3809 31.503C12.3109 33.773 13.5209 36.253 14.6309 38.303L19.1709 45.883C19.5809 46.813 20.4709 47.833 21.2209 47.833C22.2909 47.833 23.0909 46.973 23.1309 45.893L23.1309 45.893C23.1309 45.873 23.1309 45.853 23.1309 45.823Z"></path><path id="路径 4" fill-rule="evenodd" style="fill:#FFFFFF" opacity="1" d="M37.5986 30.1255C38.6886 30.1255 39.5686 29.2455 39.5686 28.1755C39.5686 27.0955 38.6886 26.2255 37.5986 26.2155L25.7886 26.2155L25.7886 45.8955L37.5986 45.8955L37.5986 45.8955C38.6586 45.8555 39.4986 44.9955 39.4986 43.9255C39.4986 42.8455 38.6186 41.9555 37.5186 41.9555C37.4886 41.9555 37.4486 41.9555 37.4186 41.9655L29.7286 41.9655L29.7286 38.0255L36.2886 38.0255L36.2886 38.0255C37.3586 38.0055 38.2286 37.1355 38.2286 36.0555C38.2286 34.9855 37.3586 34.1055 36.2886 34.0855L36.2886 34.0855L29.7286 34.0855L29.7286 30.1555L37.5986 30.1555L37.5986 30.1255Z"></path><path id="路径 5" fill-rule="evenodd" style="fill:#FFFFFF" opacity="1" d="M64.4879 26.4409L64.4779 26.2209C64.4079 25.1809 63.5379 24.3509 62.3979 24.3509C61.2579 24.3509 60.2979 25.1809 60.2279 26.2209L58.6679 34.2809C58.2779 36.6109 57.8479 38.9209 57.5679 41.1109L57.5079 41.1109C57.2279 38.9209 56.9179 36.8109 56.4879 34.5109L54.9579 26.2209L54.9479 26.2209C54.7879 25.2509 53.8279 24.5109 52.6679 24.5109C51.4979 24.5109 50.5379 25.2509 50.3779 26.2209L50.3679 26.2209L48.7579 34.2809C48.2779 36.7009 47.8279 39.0609 47.5179 41.1909L47.4579 41.1909C47.1479 39.2109 46.7479 36.6709 46.3279 34.3309L44.8979 26.3009C44.8979 26.2709 44.8979 26.2409 44.8979 26.2109C44.6079 24.7109 43.8679 24.2109 42.5879 24.2109C41.3079 24.2109 40.2779 25.0409 40.2779 26.1409C40.2779 26.1509 40.2779 26.1509 40.2779 26.1509L40.2679 26.1509L40.2779 26.1909C40.2879 26.4309 40.3179 26.5509 40.4379 26.9409L44.7979 45.9009C44.9079 47.0209 45.9479 47.9009 47.1779 47.9009C48.4179 47.9009 49.1579 46.8909 49.5379 45.8509L51.3379 37.4309C51.7879 35.4509 52.0979 33.5809 52.4379 31.3609L52.4979 31.3609C52.7179 33.6109 53.0279 35.4509 53.3979 37.4309L55.0179 45.9009L55.0179 45.9009C55.1279 47.0209 56.1379 47.9009 57.3679 47.9009C58.6779 47.9009 59.5579 46.9709 59.7379 45.6909L64.3779 27.1609C64.4879 26.8509 64.4579 26.7309 64.4879 26.4409Z"></path></g></g></g></g><defs><rect id="path_0" x="0" y="0" width="120" height="120" /><rect id="path_1" x="0" y="0" width="72" height="72" /></defs></svg>