<svg xmlns="http://www.w3.org/2000/svg" xmlns:xlink="http://www.w3.org/1999/xlink" width="120" height="120" viewBox="0 0 120 120" fill="none"><g opacity="1"  transform="translate(0 0)  rotate(0)"><rect fill="#31C9FA" opacity="1" transform="translate(0 0)  rotate(0)" x="0" y="0" width="120" height="120" rx="16" ry="16"/><mask id="bg-mask-0" fill="white"><use transform="translate(0 0)  rotate(0)" xlink:href="#path_0"></use></mask><g mask="url(#bg-mask-0)" ><path id="圆形 1" fill-rule="evenodd" style="fill:#FFFFFF" opacity="0.16" d="M18 60C-5.2 60 -24 78.8 -24 102C-24 125.2 -5.2 144 18 144C41.2 144 60 125.2 60 102C60 78.8 41.2 60 18 60Z"></path><g opacity="1"  transform="translate(17 17)  rotate(0)"><mask id="bg-mask-1" fill="white"><use transform="translate(0 0)  rotate(0)" xlink:href="#path_1"></use></mask><g mask="url(#bg-mask-1)" ><path id="路径 1" fill-rule="evenodd" style="fill:#FFFFFF" opacity="0.5" d="M7.16666,68.0881v-53.75h21.14004c4.3,-0.36 8.6,1.43 11.83,4.65c2.86,3.23 4.3,7.53 3.94,11.83c0,11.11 -5.74,16.84 -17.56,16.84h-5.38v20.78h-13.97004zM21.1367,37.6281h2.51c3.59,0 5.38,-2.15 5.38,-6.45c0,-4.3 -1.79,-6.45 -5.38,-6.45l-2.51,-0.36zM46.2267,54.4681h11.82c0,1.43 0.36,2.87 1.08,3.94c0.71,1.08 1.79,1.43 2.86,1.43c1.08,0 2.15,-0.35 2.87,-1.07c0.72,-0.72 1.08,-1.43 1.08,-2.51c0,-1.79 -1.8,-3.22 -5.02,-4.66c-3.23,-1.07 -6.45,-2.15 -9.32,-3.94c-3.58,-2.15 -5.37,-6.09 -5.01,-10.03c0,-3.59 1.43,-6.81 3.94,-8.96c3.58,-2.51 7.88,-3.94 12.18,-3.58c10.39,0 15.41,4.3 15.41,12.9h-11.83c0,-2.87 -1.07,-4.66 -3.58,-4.66c-2.15,0 -3.58,1.07 -3.58,3.22c0,1.79 1.79,3.23 5.01,4.3c3.23,0.72 6.45,2.15 9.32,3.59c3.58,2.15 5.38,6.09 5.02,10.03c0,3.58 -1.44,7.17 -4.3,9.67c-3.59,2.87 -7.89,4.3 -12.19,3.95c-10.39,0 -15.76,-4.3 -15.76,-13.62z"></path><path id="路径 1" fill-rule="evenodd" fill="url(#linear_0)" opacity="1" d="M7.16666,68.0881v-53.75h21.14004c4.3,-0.36 8.6,1.43 11.83,4.65c2.86,3.23 4.3,7.53 3.94,11.83c0,11.11 -5.74,16.84 -17.56,16.84h-5.38v20.78h-13.97004zM21.1367,37.6281h2.51c3.59,0 5.38,-2.15 5.38,-6.45c0,-4.3 -1.79,-6.45 -5.38,-6.45l-2.51,-0.36zM46.2267,54.4681h11.82c0,1.43 0.36,2.87 1.08,3.94c0.71,1.08 1.79,1.43 2.86,1.43c1.08,0 2.15,-0.35 2.87,-1.07c0.72,-0.72 1.08,-1.43 1.08,-2.51c0,-1.79 -1.8,-3.22 -5.02,-4.66c-3.23,-1.07 -6.45,-2.15 -9.32,-3.94c-3.58,-2.15 -5.37,-6.09 -5.01,-10.03c0,-3.59 1.43,-6.81 3.94,-8.96c3.58,-2.51 7.88,-3.94 12.18,-3.58c10.39,0 15.41,4.3 15.41,12.9h-11.83c0,-2.87 -1.07,-4.66 -3.58,-4.66c-2.15,0 -3.58,1.07 -3.58,3.22c0,1.79 1.79,3.23 5.01,4.3c3.23,0.72 6.45,2.15 9.32,3.59c3.58,2.15 5.38,6.09 5.02,10.03c0,3.58 -1.44,7.17 -4.3,9.67c-3.59,2.87 -7.89,4.3 -12.19,3.95c-10.39,0 -15.76,-4.3 -15.76,-13.62z"></path></g></g></g></g><defs><rect id="path_0" x="0" y="0" width="120" height="120" /><rect id="path_1" x="0" y="0" width="86" height="86" /><linearGradient id="linear_0" x1="32.652%" y1="50%" x2="100%" y2="50%" gradientUnits="objectBoundingBox"><stop offset="0" stop-color="#FFFFFF" stop-opacity="1" /><stop offset="1" stop-color="#FFFFFF" stop-opacity="0" /></linearGradient></defs></svg>