<svg xmlns="http://www.w3.org/2000/svg" xmlns:xlink="http://www.w3.org/1999/xlink" width="120" height="120" viewBox="0 0 120 120" fill="none"><g opacity="1"  transform="translate(0 0)  rotate(0)"><rect fill="#C66494" opacity="1" transform="translate(0 0)  rotate(0)" x="0" y="0" width="120" height="120" rx="16" ry="16"/><mask id="bg-mask-0" fill="white"><use transform="translate(0 0)  rotate(0)" xlink:href="#path_0"></use></mask><g mask="url(#bg-mask-0)" ><path id="圆形 1" fill-rule="evenodd" style="fill:#FFFFFF" opacity="0.16" d="M18 60C-5.2 60 -24 78.8 -24 102C-24 125.2 -5.2 144 18 144C41.2 144 60 125.2 60 102C60 78.8 41.2 60 18 60Z"></path><g opacity="1"  transform="translate(17 25)  rotate(0)"><mask id="bg-mask-1" fill="white"><use transform="translate(0 0)  rotate(0)" xlink:href="#path_1"></use></mask><g mask="url(#bg-mask-1)" ><path id="路径 1" fill-rule="evenodd" style="fill:#FFFFFF" opacity="0.5" d="M74.06,39.2279c7.78,-0.04 12.17,4.98 11.96,9.55c-0.15,3.61 -3.46,5.09 -4.07,5.2c-0.45,0.08 -0.69,0.09 -0.76,-0.25c-0.04,-0.25 0.12,-0.37 0.65,-0.69c0.52,-0.32 2.09,-1.4 2.38,-3.36c0.28,-1.95 -1.19,-6.62 -8.67,-7.5c-3.49,-0.4 -6.24,0.08 -8.35,0.97c0.39,1.02 0.69,2.08 0.73,3.14c0.11,2.36 -1.52,4.09 -3.2,5.33c-0.98,0.72 -2.03,1.19 -2.9,1.49c-0.7,0.29 -1.64,0.6 -2.3,0.47c-1.46,-0.3 -2.24,-1.59 -1.25,-4.45c0.54,-1.55 2.08,-3.9 4.58,-5.93c-0.57,-1.17 -1.21,-2.36 -1.53,-3.45c-0.64,-2.16 -0.83,-3.47 -0.83,-3.47c0,0 -2.06,4.26 -4.72,8.15c-0.15,0.22 -0.31,0.45 -0.45,0.67c0.51,1.21 0.92,2.5 0.98,3.79c0.09,2.34 -0.93,4.11 -2.61,5.35c-0.91,0.65 -1.88,1.12 -2.71,1.42c-0.53,0.24 -1.62,0.62 -3.16,0.73c-0.85,0.06 -1.66,0.01 -2.11,-0.34c-0.62,-0.46 -0.7,-1.05 -0.38,-1.84c0.27,-0.67 2.31,-3.01 4.03,-5.05c0.47,-0.57 0.93,-1.15 1.33,-1.68c-0.01,-0.02 -0.01,-0.03 -0.01,-0.03c0,0 0.31,-0.4 0.82,-1.1c-0.63,-1.36 -1.42,-2.76 -1.8,-4.03c-0.65,-2.17 -0.83,-3.47 -0.83,-3.47c0,0 -2.09,5.33 -4.26,9.61c-1.68,3.3 -2.8,5.31 -3.31,6.18v0.04c0,0 -0.07,0.12 -0.2,0.32c-0.07,0.11 -0.1,0.16 -0.1,0.16v-0.01c-0.56,0.83 -1.82,2.46 -3.09,2.46c-3.45,0 -2.19,-7.02 -2.19,-7.02c0,0 -1,2.6 -2.15,4.83c-0.92,1.83 -1.76,3.36 -3.61,3.36c-0.52,0 -1.37,-0.02 -2.07,-0.67c-1.59,-1.51 -2.81,-5.34 -2.57,-8.3c0.2,-2.52 0.59,-4.27 1.13,-5.72c-0.95,0.52 -2.04,1.13 -3.16,1.79c-0.57,0.33 -1.15,0.67 -1.72,1.01c0.02,0.04 0.04,0.06 0.06,0.1c1.42,2.74 1.8,8.76 -1.29,13.37c-3.09,4.61 -8.84,7.42 -14.46,5.86c-1.8,-0.51 -4.54,-4.24 -2.19,-9.46c2.08,-4.59 10.4,-8.95 12.59,-10.04c0.19,-0.1 0.39,-0.21 0.6,-0.33c-4.36,-3.82 -15.27,-8.98 -16.81,-16.89c-0.43,-2.23 0.62,-7.57 7.17,-13.7c5.51,-5.14 13.17,-9.09001 20.25,-11.61001c11.89,-4.21 24.45,-1.73 26.39,5.85001c1.89,7.46 -4.57,16.37 -12.88,19.56c-7.39,2.87 -13.5,2.41 -16.01,1.59c-2.86,-0.94 -4.54,-2.82 -4.95,-3.88c-0.16,-0.42 -0.44,-1.12 0,-1.36c0.27,-0.15 0.38,-0.11 1.09,0.69c0.69,0.75 3.43,2.76 8.64,2.19c13.68,-1.54 21.92,-12.17 19.31,-17.88c-1.81,-4.00001 -12.35,-5.80001 -25.52,0.76c-16.07,8 -16.94,14.6 -17.08,17.12c-0.37,6.89 8.51,10.52 13.32,15.65c0.07,0.07 0.12,0.13 0.19,0.2c0.9,-0.5 1.85,-1.02 2.78,-1.53c2.42,-1.33 4.72,-2.58 5.78,-3.16c1.69,-2.46 5.13,-5.17 7.6,-5.17c3.97,0 2.61,5.7 2.61,5.7c0,0 0.08,-0.27 0.19,-0.27c0.11,0 0.55,-0.74 1.77,-0.3c1.27,0.47 0.97,1.35 0.98,1.44c0.02,0.17 -1.47,5.23 -2.11,8.48c-0.29,1.54 -0.12,2.67 -0.04,2.67c0.12,0 0.38,-0.39 0.61,-0.82v-0.01c0,0 0.17,-0.32 0.47,-0.9c0.03,-0.08 -0.3,0.55 0.05,-0.12c0.35,-0.67 0.84,-1.67 1.4,-2.9c1.1,-2.44 5.31,-11.79 5.66,-12.82c0.35,-1.04 0.53,-2.11 0.71,-2.57c0.17,-0.46 1.67,-0.81 3.4,-0.79c1.73,0.01 1.91,0.75 1.92,0.9c0.01,0.15 -0.83,2.2 -1.02,3.65c-0.19,1.45 -0.01,2.18 0.15,3.4c0.1,0.81 0.6,1.82 1.19,2.96c1.79,-2.93 4.95,-8.55 5.26,-10.12c0.2,-1.08 0.53,-2.11 0.71,-2.57c0.17,-0.45 1.67,-0.8 3.4,-0.79c1.73,0.01 1.91,0.75 1.92,0.9c0.01,0.15 -0.83,2.2 -1.02,3.66c-0.19,1.45 -0.01,2.17 0.15,3.4c0.13,1.04 0.95,2.44 1.74,4.04c2.18,-1.07 4.79,-1.8 7.8,-1.81zM18.94,48.1479c-0.14,0.08 -0.27,0.15 -0.39,0.23c0,0 -0.06,0.02 -0.16,0.09c-0.65,0.39 -1.17,0.71 -1.54,0.93c-1.58,0.99 -3.97,2.61 -5.83,4.35c-3.05,2.88 -3.68,6.86 -2.08,7.78c1.49,0.86 4.96,-0.16 7.43,-2.86c2.61,-2.84 3.68,-6.44 2.57,-10.52zM36.61,38.4279c-0.35,-0.6 -1.84,-0.12 -3.2,1.4c-0.85,0.94 -2.27,3.36 -2.94,5.39c-1.33,4.03 -0.76,8.13 0.18,8.37c1.11,0.28 2.92,-5.09 3.78,-7.2c0.54,-1.32 2.65,-7.16 2.18,-7.96zM52.72,48.8279c0,-0.08 -0.01,-0.14 -0.01,-0.21c-0.54,0.7 -1.04,1.33 -1.47,1.87c-0.74,0.91 -2.61,2.91 -2.61,2.91c0,0 -0.26,0.26 -0.14,0.33c0.16,0.09 0.49,-0.03 0.86,-0.22c1.04,-0.64 3.36,-2.27 3.37,-4.68zM64.33,46.2679c0,-0.46 -0.1,-0.94 -0.26,-1.45c-1.39,1.23 -2.2,2.52 -2.55,3.29c-0.9,1.96 -0.94,2.59 -0.67,2.78c1.3,-0.47 3.47,-1.6 3.48,-4.62z"></path><path id="路径 1" fill-rule="evenodd" fill="url(#linear_0)" opacity="1" d="M74.06,39.2279c7.78,-0.04 12.17,4.98 11.96,9.55c-0.15,3.61 -3.46,5.09 -4.07,5.2c-0.45,0.08 -0.69,0.09 -0.76,-0.25c-0.04,-0.25 0.12,-0.37 0.65,-0.69c0.52,-0.32 2.09,-1.4 2.38,-3.36c0.28,-1.95 -1.19,-6.62 -8.67,-7.5c-3.49,-0.4 -6.24,0.08 -8.35,0.97c0.39,1.02 0.69,2.08 0.73,3.14c0.11,2.36 -1.52,4.09 -3.2,5.33c-0.98,0.72 -2.03,1.19 -2.9,1.49c-0.7,0.29 -1.64,0.6 -2.3,0.47c-1.46,-0.3 -2.24,-1.59 -1.25,-4.45c0.54,-1.55 2.08,-3.9 4.58,-5.93c-0.57,-1.17 -1.21,-2.36 -1.53,-3.45c-0.64,-2.16 -0.83,-3.47 -0.83,-3.47c0,0 -2.06,4.26 -4.72,8.15c-0.15,0.22 -0.31,0.45 -0.45,0.67c0.51,1.21 0.92,2.5 0.98,3.79c0.09,2.34 -0.93,4.11 -2.61,5.35c-0.91,0.65 -1.88,1.12 -2.71,1.42c-0.53,0.24 -1.62,0.62 -3.16,0.73c-0.85,0.06 -1.66,0.01 -2.11,-0.34c-0.62,-0.46 -0.7,-1.05 -0.38,-1.84c0.27,-0.67 2.31,-3.01 4.03,-5.05c0.47,-0.57 0.93,-1.15 1.33,-1.68c-0.01,-0.02 -0.01,-0.03 -0.01,-0.03c0,0 0.31,-0.4 0.82,-1.1c-0.63,-1.36 -1.42,-2.76 -1.8,-4.03c-0.65,-2.17 -0.83,-3.47 -0.83,-3.47c0,0 -2.09,5.33 -4.26,9.61c-1.68,3.3 -2.8,5.31 -3.31,6.18v0.04c0,0 -0.07,0.12 -0.2,0.32c-0.07,0.11 -0.1,0.16 -0.1,0.16v-0.01c-0.56,0.83 -1.82,2.46 -3.09,2.46c-3.45,0 -2.19,-7.02 -2.19,-7.02c0,0 -1,2.6 -2.15,4.83c-0.92,1.83 -1.76,3.36 -3.61,3.36c-0.52,0 -1.37,-0.02 -2.07,-0.67c-1.59,-1.51 -2.81,-5.34 -2.57,-8.3c0.2,-2.52 0.59,-4.27 1.13,-5.72c-0.95,0.52 -2.04,1.13 -3.16,1.79c-0.57,0.33 -1.15,0.67 -1.72,1.01c0.02,0.04 0.04,0.06 0.06,0.1c1.42,2.74 1.8,8.76 -1.29,13.37c-3.09,4.61 -8.84,7.42 -14.46,5.86c-1.8,-0.51 -4.54,-4.24 -2.19,-9.46c2.08,-4.59 10.4,-8.95 12.59,-10.04c0.19,-0.1 0.39,-0.21 0.6,-0.33c-4.36,-3.82 -15.27,-8.98 -16.81,-16.89c-0.43,-2.23 0.62,-7.57 7.17,-13.7c5.51,-5.14 13.17,-9.09001 20.25,-11.61001c11.89,-4.21 24.45,-1.73 26.39,5.85001c1.89,7.46 -4.57,16.37 -12.88,19.56c-7.39,2.87 -13.5,2.41 -16.01,1.59c-2.86,-0.94 -4.54,-2.82 -4.95,-3.88c-0.16,-0.42 -0.44,-1.12 0,-1.36c0.27,-0.15 0.38,-0.11 1.09,0.69c0.69,0.75 3.43,2.76 8.64,2.19c13.68,-1.54 21.92,-12.17 19.31,-17.88c-1.81,-4.00001 -12.35,-5.80001 -25.52,0.76c-16.07,8 -16.94,14.6 -17.08,17.12c-0.37,6.89 8.51,10.52 13.32,15.65c0.07,0.07 0.12,0.13 0.19,0.2c0.9,-0.5 1.85,-1.02 2.78,-1.53c2.42,-1.33 4.72,-2.58 5.78,-3.16c1.69,-2.46 5.13,-5.17 7.6,-5.17c3.97,0 2.61,5.7 2.61,5.7c0,0 0.08,-0.27 0.19,-0.27c0.11,0 0.55,-0.74 1.77,-0.3c1.27,0.47 0.97,1.35 0.98,1.44c0.02,0.17 -1.47,5.23 -2.11,8.48c-0.29,1.54 -0.12,2.67 -0.04,2.67c0.12,0 0.38,-0.39 0.61,-0.82v-0.01c0,0 0.17,-0.32 0.47,-0.9c0.03,-0.08 -0.3,0.55 0.05,-0.12c0.35,-0.67 0.84,-1.67 1.4,-2.9c1.1,-2.44 5.31,-11.79 5.66,-12.82c0.35,-1.04 0.53,-2.11 0.71,-2.57c0.17,-0.46 1.67,-0.81 3.4,-0.79c1.73,0.01 1.91,0.75 1.92,0.9c0.01,0.15 -0.83,2.2 -1.02,3.65c-0.19,1.45 -0.01,2.18 0.15,3.4c0.1,0.81 0.6,1.82 1.19,2.96c1.79,-2.93 4.95,-8.55 5.26,-10.12c0.2,-1.08 0.53,-2.11 0.71,-2.57c0.17,-0.45 1.67,-0.8 3.4,-0.79c1.73,0.01 1.91,0.75 1.92,0.9c0.01,0.15 -0.83,2.2 -1.02,3.66c-0.19,1.45 -0.01,2.17 0.15,3.4c0.13,1.04 0.95,2.44 1.74,4.04c2.18,-1.07 4.79,-1.8 7.8,-1.81zM18.94,48.1479c-0.14,0.08 -0.27,0.15 -0.39,0.23c0,0 -0.06,0.02 -0.16,0.09c-0.65,0.39 -1.17,0.71 -1.54,0.93c-1.58,0.99 -3.97,2.61 -5.83,4.35c-3.05,2.88 -3.68,6.86 -2.08,7.78c1.49,0.86 4.96,-0.16 7.43,-2.86c2.61,-2.84 3.68,-6.44 2.57,-10.52zM36.61,38.4279c-0.35,-0.6 -1.84,-0.12 -3.2,1.4c-0.85,0.94 -2.27,3.36 -2.94,5.39c-1.33,4.03 -0.76,8.13 0.18,8.37c1.11,0.28 2.92,-5.09 3.78,-7.2c0.54,-1.32 2.65,-7.16 2.18,-7.96zM52.72,48.8279c0,-0.08 -0.01,-0.14 -0.01,-0.21c-0.54,0.7 -1.04,1.33 -1.47,1.87c-0.74,0.91 -2.61,2.91 -2.61,2.91c0,0 -0.26,0.26 -0.14,0.33c0.16,0.09 0.49,-0.03 0.86,-0.22c1.04,-0.64 3.36,-2.27 3.37,-4.68zM64.33,46.2679c0,-0.46 -0.1,-0.94 -0.26,-1.45c-1.39,1.23 -2.2,2.52 -2.55,3.29c-0.9,1.96 -0.94,2.59 -0.67,2.78c1.3,-0.47 3.47,-1.6 3.48,-4.62z"></path></g></g></g></g><defs><rect id="path_0" x="0" y="0" width="120" height="120" /><rect id="path_1" x="0" y="0" width="86" height="86" /><linearGradient id="linear_0" x1="38.251000000000005%" y1="50%" x2="56.662%" y2="50%" gradientUnits="objectBoundingBox"><stop offset="0" stop-color="#FFFFFF" stop-opacity="1" /><stop offset="1" stop-color="#FFFFFF" stop-opacity="0" /></linearGradient></defs></svg>