<svg xmlns="http://www.w3.org/2000/svg" xmlns:xlink="http://www.w3.org/1999/xlink" width="120" height="120" viewBox="0 0 120 120" fill="none"><g opacity="1"  transform="translate(0 0)  rotate(0)"><rect fill="#61DAFB" opacity="1" transform="translate(0 0)  rotate(0)" x="0" y="0" width="120" height="120" rx="16" ry="16"/><mask id="bg-mask-0" fill="white"><use transform="translate(0 0)  rotate(0)" xlink:href="#path_0"></use></mask><g mask="url(#bg-mask-0)" ><path id="圆形 1" fill-rule="evenodd" style="fill:#FFFFFF" opacity="0.16" d="M18 60C-5.2 60 -24 78.8 -24 102C-24 125.2 -5.2 144 18 144C41.2 144 60 125.2 60 102C60 78.8 41.2 60 18 60Z"></path><g opacity="1"  transform="translate(13 13)  rotate(0)"><mask id="bg-mask-1" fill="white"><use transform="translate(0 0)  rotate(0)" xlink:href="#path_1"></use></mask><g mask="url(#bg-mask-1)" ><path id="路径 1" fill-rule="evenodd" style="fill:#B0EDFD" opacity="1" d="M72.6689,47.355c0.7,0.9 1.31,1.86 1.83,2.88c4.7,6.84 5.84,12.98 3.17,17.27c-1.32,2.35 -4.58,5.11 -11.75,5.11c-2.2,-0.05 -4.39,-0.29 -6.55,-0.7l-0.62,1.52c-3.23,7.55 -7.84,11.64 -12.95,11.64c-5.11,0 -9.73,-4.09 -13.1,-11.75l-0.62,-1.53c-2.15,0.47 -4.35,0.71 -6.55,0.7c-7.05,0 -10.31,-2.76 -11.75,-5.11c-2.7,-4.29 -1.53,-10.43 3.17,-17.27l2.14,-2.76c-0.77,-0.87 -1.49,-1.79 -2.14,-2.76c-4.58,-6.85 -5.7,-12.99 -2.94,-17.39c1.32,-2.35 4.59,-5.11 11.75,-5.11c2.2,0.05 4.39,0.28 6.55,0.7l0.59,-1.41c3.26,-7.55 7.87,-11.74999 12.98,-11.74999c5.12,0 9.73,4.07999 13.19,11.74999l0.62,1.53c2.15,-0.47 4.35,-0.71 6.55,-0.71c7.05,0 10.31,2.76 11.75,5.11c2.7,4.29 1.53,10.43 -3.17,17.28zM20.5589,42.035c0.44,0.7 0.91,1.38 1.41,2.03c2.11,-2.17 4.35,-4.21 6.7,-6.11c0.39,-3.6 1.08,-7.15 2.06,-10.64c-1.69,-0.3 -3.4,-0.47 -5.11,-0.5c-2.77,0 -6.47,0.47 -7.99,2.94c-1.71,2.56 -0.56,7.05 2.93,12.28zM28.1989,50.405c-0.09,-1 0.06,-2.14 0.06,-3.02v-2.94c-1.12,0.88 -2.26,1.91 -3.17,2.94c1.03,0.88 2.05,1.91 3.17,2.93zM25.5589,67.915c1.72,0.03 3.44,-0.08 5.14,-0.32c-0.98,-3.48 -1.67,-7.04 -2.06,-10.64c-2.35,-1.85 -4.57,-3.86 -6.64,-6.02c-0.51,0.62 -0.99,1.27 -1.44,1.94c-3.49,5.02 -4.52,9.69 -2.96,12.13c1.55,2.44 5.23,2.94 7.99,2.94zM57.7489,34.045c-0.41,-2.03 -0.82,-3.96 -1.17,-5.67c-1.79,0.44 -3.54,1.02 -5.23,1.73c1.32,0.71 2.67,1.53 3.99,2.35c0.83,0.53 1.74,1.03 2.56,1.65zM36.7189,23.945l2.76,0.91c2.15,0.7 4.2,1.64 6.35,2.55c2.06,-0.96 4.18,-1.82 6.34,-2.55l2.76,-0.91l-0.29,-0.83c-2.59,-5.72 -5.61,-8.99 -8.81,-8.99c-3.21,0 -6.35,3.27 -8.82,8.99c-0.11,0.39 -0.2,0.39 -0.29,0.83zM33.9289,33.955l2.55,-1.64c1.33,-0.82 2.68,-1.65 4,-2.35c-1.85,-0.71 -3.58,-1.24 -5.23,-1.74c-0.6,1.87 -1.04,3.79 -1.32,5.73zM33.8389,60.655c0.41,2.03 0.79,3.97 1.29,5.62c1.79,-0.44 3.54,-1.02 5.23,-1.74c-1.32,-0.7 -2.67,-1.53 -3.99,-2.35c-0.83,-0.53 -1.74,-1.03 -2.56,-1.64zM54.5789,71.585c0.12,-0.29 0.21,-0.5 0.29,-0.94l-2.76,-0.91c-2.14,-0.7 -4.2,-1.64 -6.34,-2.55c-2.07,0.96 -4.19,1.81 -6.35,2.55l-2.76,0.91l0.29,0.82c2.59,5.73 5.62,8.99 8.82,8.99c3.2,0 6.34,-3.26 8.81,-8.99zM56.3089,66.355c0.63,-1.86 1.08,-3.78 1.35,-5.72l-2.55,1.64c-1.32,0.82 -2.67,1.65 -4,2.35c1.71,0.63 3.44,1.17 5.2,1.62zM58.5689,54.405c0.18,-2.23 0.47,-4.7 0.47,-7.05c0,-2.35 -0.08,-4.79 -0.29,-7.05c-1.88,-1.32 -3.82,-2.76 -5.87,-4c-2.29,-1.45 -4.66,-2.78 -7.08,-3.99c-2.42,1.15 -4.76,2.44 -7.02,3.88c-2.04,1.21 -4,2.54 -5.88,3.99c-0.29,2.23 -0.29,4.7 -0.29,7.05c0,2.35 0.09,4.79 0.29,7.05l5.88,4c2.25,1.4 4.57,2.7 6.96,3.87c2.39,-1.15 4.72,-2.44 6.96,-3.87c2.04,-1.22 4,-2.55 5.87,-4zM65.9489,26.795c-1.7,-0.06 -3.4,0.03 -5.08,0.26c0.97,3.48 1.66,7.04 2.05,10.63c2.35,1.85 4.57,3.87 6.64,6.03c0.51,-0.63 0.99,-1.27 1.44,-1.94c3.44,-5.11 4.49,-9.73 2.94,-12.16c-1.56,-2.44 -5.23,-2.94 -7.99,-2.94zM63.3889,47.235v2.94c1.12,-0.88 2.26,-1.91 3.17,-2.94c-1.02,-0.88 -2.05,-1.91 -3.17,-2.94c0.09,1 0,2.06 0,2.94zM74.0289,64.945c1.61,-2.67 0.5,-7.05 -2.97,-12.19c-0.42,-0.69 -0.9,-1.33 -1.44,-1.94c-2.09,2.17 -4.31,4.21 -6.64,6.11c-0.39,3.6 -1.08,7.16 -2.06,10.64c1.7,0.22 3.41,0.3 5.12,0.23c2.76,0 6.46,-0.47 7.99,-2.93zM46.3289,41.365l-0.03,0.05c1.48,0 2.91,0.58 3.97,1.63c1.06,1.04 1.66,2.47 1.67,3.96c-0.02,3.09 -2.54,5.59 -5.63,5.58c-3.1,-0.01 -5.6,-2.53 -5.6,-5.62c0.01,-3.1 2.52,-5.6 5.62,-5.6z"></path><path id="路径 1" fill-rule="evenodd" style="fill:#FFFFFF" opacity="1" d="M72.6689,47.355c0.7,0.9 1.31,1.86 1.83,2.88c4.7,6.84 5.84,12.98 3.17,17.27c-1.32,2.35 -4.58,5.11 -11.75,5.11c-2.2,-0.05 -4.39,-0.29 -6.55,-0.7l-0.62,1.52c-3.23,7.55 -7.84,11.64 -12.95,11.64c-5.11,0 -9.73,-4.09 -13.1,-11.75l-0.62,-1.53c-2.15,0.47 -4.35,0.71 -6.55,0.7c-7.05,0 -10.31,-2.76 -11.75,-5.11c-2.7,-4.29 -1.53,-10.43 3.17,-17.27l2.14,-2.76c-0.77,-0.87 -1.49,-1.79 -2.14,-2.76c-4.58,-6.85 -5.7,-12.99 -2.94,-17.39c1.32,-2.35 4.59,-5.11 11.75,-5.11c2.2,0.05 4.39,0.28 6.55,0.7l0.59,-1.41c3.26,-7.55 7.87,-11.74999 12.98,-11.74999c5.12,0 9.73,4.07999 13.19,11.74999l0.62,1.53c2.15,-0.47 4.35,-0.71 6.55,-0.71c7.05,0 10.31,2.76 11.75,5.11c2.7,4.29 1.53,10.43 -3.17,17.28zM20.5589,42.035c0.44,0.7 0.91,1.38 1.41,2.03c2.11,-2.17 4.35,-4.21 6.7,-6.11c0.39,-3.6 1.08,-7.15 2.06,-10.64c-1.69,-0.3 -3.4,-0.47 -5.11,-0.5c-2.77,0 -6.47,0.47 -7.99,2.94c-1.71,2.56 -0.56,7.05 2.93,12.28zM28.1989,50.405c-0.09,-1 0.06,-2.14 0.06,-3.02v-2.94c-1.12,0.88 -2.26,1.91 -3.17,2.94c1.03,0.88 2.05,1.91 3.17,2.93zM25.5589,67.915c1.72,0.03 3.44,-0.08 5.14,-0.32c-0.98,-3.48 -1.67,-7.04 -2.06,-10.64c-2.35,-1.85 -4.57,-3.86 -6.64,-6.02c-0.51,0.62 -0.99,1.27 -1.44,1.94c-3.49,5.02 -4.52,9.69 -2.96,12.13c1.55,2.44 5.23,2.94 7.99,2.94zM57.7489,34.045c-0.41,-2.03 -0.82,-3.96 -1.17,-5.67c-1.79,0.44 -3.54,1.02 -5.23,1.73c1.32,0.71 2.67,1.53 3.99,2.35c0.83,0.53 1.74,1.03 2.56,1.65zM36.7189,23.945l2.76,0.91c2.15,0.7 4.2,1.64 6.35,2.55c2.06,-0.96 4.18,-1.82 6.34,-2.55l2.76,-0.91l-0.29,-0.83c-2.59,-5.72 -5.61,-8.99 -8.81,-8.99c-3.21,0 -6.35,3.27 -8.82,8.99c-0.11,0.39 -0.2,0.39 -0.29,0.83zM33.9289,33.955l2.55,-1.64c1.33,-0.82 2.68,-1.65 4,-2.35c-1.85,-0.71 -3.58,-1.24 -5.23,-1.74c-0.6,1.87 -1.04,3.79 -1.32,5.73zM33.8389,60.655c0.41,2.03 0.79,3.97 1.29,5.62c1.79,-0.44 3.54,-1.02 5.23,-1.74c-1.32,-0.7 -2.67,-1.53 -3.99,-2.35c-0.83,-0.53 -1.74,-1.03 -2.56,-1.64zM54.5789,71.585c0.12,-0.29 0.21,-0.5 0.29,-0.94l-2.76,-0.91c-2.14,-0.7 -4.2,-1.64 -6.34,-2.55c-2.07,0.96 -4.19,1.81 -6.35,2.55l-2.76,0.91l0.29,0.82c2.59,5.73 5.62,8.99 8.82,8.99c3.2,0 6.34,-3.26 8.81,-8.99zM56.3089,66.355c0.63,-1.86 1.08,-3.78 1.35,-5.72l-2.55,1.64c-1.32,0.82 -2.67,1.65 -4,2.35c1.71,0.63 3.44,1.17 5.2,1.62zM58.5689,54.405c0.18,-2.23 0.47,-4.7 0.47,-7.05c0,-2.35 -0.08,-4.79 -0.29,-7.05c-1.88,-1.32 -3.82,-2.76 -5.87,-4c-2.29,-1.45 -4.66,-2.78 -7.08,-3.99c-2.42,1.15 -4.76,2.44 -7.02,3.88c-2.04,1.21 -4,2.54 -5.88,3.99c-0.29,2.23 -0.29,4.7 -0.29,7.05c0,2.35 0.09,4.79 0.29,7.05l5.88,4c2.25,1.4 4.57,2.7 6.96,3.87c2.39,-1.15 4.72,-2.44 6.96,-3.87c2.04,-1.22 4,-2.55 5.87,-4zM65.9489,26.795c-1.7,-0.06 -3.4,0.03 -5.08,0.26c0.97,3.48 1.66,7.04 2.05,10.63c2.35,1.85 4.57,3.87 6.64,6.03c0.51,-0.63 0.99,-1.27 1.44,-1.94c3.44,-5.11 4.49,-9.73 2.94,-12.16c-1.56,-2.44 -5.23,-2.94 -7.99,-2.94zM63.3889,47.235v2.94c1.12,-0.88 2.26,-1.91 3.17,-2.94c-1.02,-0.88 -2.05,-1.91 -3.17,-2.94c0.09,1 0,2.06 0,2.94zM74.0289,64.945c1.61,-2.67 0.5,-7.05 -2.97,-12.19c-0.42,-0.69 -0.9,-1.33 -1.44,-1.94c-2.09,2.17 -4.31,4.21 -6.64,6.11c-0.39,3.6 -1.08,7.16 -2.06,10.64c1.7,0.22 3.41,0.3 5.12,0.23c2.76,0 6.46,-0.47 7.99,-2.93z"></path></g></g></g></g><defs><rect id="path_0" x="0" y="0" width="120" height="120" /><rect id="path_1" x="0" y="0" width="94" height="94" /></defs></svg>