<svg xmlns="http://www.w3.org/2000/svg" xmlns:xlink="http://www.w3.org/1999/xlink" width="120" height="120" viewBox="0 0 120 120" fill="none"><g opacity="1"  transform="translate(0 0)  rotate(0)"><rect fill="#FF6155" opacity="1" transform="translate(0 0)  rotate(0)" x="0" y="0" width="120" height="120" rx="16" ry="16"/><mask id="bg-mask-0" fill="white"><use transform="translate(0 0)  rotate(0)" xlink:href="#path_0"></use></mask><g mask="url(#bg-mask-0)" ><g opacity="1"  transform="translate(20 23)  rotate(0)"><mask id="bg-mask-1" fill="white"><use transform="translate(0 0)  rotate(0)" xlink:href="#path_1"></use></mask><g mask="url(#bg-mask-1)" ><path id="路径 1" fill-rule="evenodd" style="fill:#FFB0AA" opacity="1" d="M55.938,2.12801l18.01,7.45v56.91999l-17.94,7.45l-53.87999,-18.16l53.80999,8.05zM37.088,12.618l9.96,4.18v32.07l-9.88,4.18l-16.5,-16.34l-9.95,7.45l-4.10999,-1.37l10.10999,-10.03l-10.10999,-9.96l4.02999,-1.37l9.96,7.45zM25.768,32.758l11.32,8.59v-17.1z"></path><path id="路径 1" fill-rule="evenodd" style="fill:#FFFFFF" opacity="1" d="M37.092,12.616l9.95,4.18v32.07l-9.88,4.18l-16.49,-16.34l-9.96,7.45l-4.1,-1.37l10.11,-10.03l-10.11,-9.96l4.03,-1.36l9.95,7.44zM25.762,32.756l11.33,8.59v-17.1z"></path></g></g><path id="圆形 1" fill-rule="evenodd" style="fill:#FFFFFF" opacity="0.16" d="M18 60C-5.2 60 -24 78.8 -24 102C-24 125.2 -5.2 144 18 144C41.2 144 60 125.2 60 102C60 78.8 41.2 60 18 60Z"></path></g></g><defs><rect id="path_0" x="0" y="0" width="120" height="120" /><rect id="path_1" x="0" y="0" width="76" height="76" /></defs></svg>